<?xml version="1.0" encoding="utf-8"?>
<!-- Generator: Adobe Illustrator 26.0.3, SVG Export Plug-In . SVG Version: 6.00 Build 0)  -->
<svg version="1.1" id="Layer_1" xmlns="http://www.w3.org/2000/svg" xmlns:xlink="http://www.w3.org/1999/xlink" x="0px" y="0px"
	 viewBox="0 0 281.8 185.6" style="enable-background:new 0 0 281.8 185.6;" xml:space="preserve">
<style type="text/css">
	.st0{fill:#F8E1A1;}
	.st1{fill:#333738;}
	.st2{fill:#FFCA11;}
	.st3{fill:#FFC910;}
	.st4{fill:#494F4F;}
	.st5{fill:#484E4E;}
	.st6{fill:#E47605;}
	.st7{fill:#E47204;}
	.st8{fill:#E57403;}
	.st9{fill:#FDE696;}
	.st10{fill:#528E49;}
	.st11{fill:#CBCBCB;}
	.st12{fill:#FDA204;}
	.st13{fill:#FEA102;}
	.st14{fill:#373734;}
	.st15{fill:#323637;}
	.st16{fill:#E47108;}
	.st17{fill:#256D24;}
	.st18{fill:#349A34;}
	.st19{fill:#73CA67;}
	.st20{fill:#CCCCCB;}
	.st21{fill:#75CA69;}
	.st22{fill:#75CA68;}
	.st23{fill:#339933;}
	.st24{fill:#74CA68;}
	.st25{fill:#74CA67;}
	.st26{fill:none;}
	.st27{font-family:'HelveticaNeue-CondensedBold';}
	.st28{font-size:11.3895px;}
</style>
<g>
	<path class="st0" d="M147.5,69.2l-0.8,0h-1.2c-0.2-0.1-0.3-0.3-0.4-0.5c-0.1-0.3,0-0.7,0.2-1c0,0,0.1-0.1,0.1-0.1
		c-0.3-0.2-0.4-0.5-0.4-0.8c0-0.3,0.2-0.7,0.5-0.8c0,0-0.1-0.1-0.1-0.1c-0.4-0.2-0.4-1-0.1-1.3c0.1-0.1,0.3-0.2,0.4-0.2h0.4l0.6,0.1
		l0.2,0h0h0l1.5,0.2l1.1,0.1c0.2,0,0.4,0.1,0.6,0.1l1,0.1l2.8,0.3c0.2,0,0.4,0,0.7,0.1c0.4,0.1,0.7,0.5,0.6,0.9
		c0,0.2-0.1,0.4-0.2,0.5c-0.1,0.1-0.1,0.2,0,0.2c0.2,0.3,0.2,0.6,0,0.8c0,0.1,0,0.1,0,0.2c0.2,0.3,0.2,0.8-0.1,1.1c0,0,0,0.1,0,0.1
		l0.3,0.2c0.6,0.4,1.2,0.8,1.8,1.2c0,0,0.1,0,0.1,0c0.2,0.3,0.2,0.8,0.1,1.1c0,0-0.1,0-0.1,0c-0.2,0.3-0.7,0.4-1,0.1l-0.2-0.2
		l-1.7-1.1c-0.1,0-0.1-0.1-0.3-0.1l0.2,0.7c0.1,0.4,0.3,0.9,0.4,1.3c0.1,0.2,0.1,0.5,0,0.7c-0.1,0.3-0.3,0.5-0.6,0.5
		c-0.3,0-0.6-0.2-0.7-0.5c-0.1-0.4-0.3-0.8-0.4-1.2l-0.9-2.6c0,0,0-0.1-0.1-0.1c0,0-0.1,0-0.1,0h-3.2c0,0-0.1,0-0.1,0L147.5,69.2z"
		/>
	<path class="st1" d="M154.1,65.1l-2.8-0.3c0-0.1,0-0.2-0.1-0.3c0-0.2,0-0.4,0.1-0.6c0-0.4,0.1-0.8,0.1-1.2c0.2-0.9,0.4-1.8,0.7-2.7
		c0-0.1,0.1-0.2,0.1-0.3c0.1-0.1,0.3-0.3,0.4-0.4c0.4-0.4,0.8-0.7,1.3-0.9c0.7-0.2,1.5,0,2,0.6c0.3,0.4,0.3,0.9,0,1.3
		c-0.8,1-1.4,2.2-1.7,3.5C154.1,64.2,154.1,64.7,154.1,65.1z"/>
	<path class="st2" d="M130.6,87.1l0.9,0h0.1h7.1c0.2,0,0.3,0,0.5,0c0,0.1,0.1,0.1,0.1,0.2c0,0.1,0.1,0.2,0.1,0.3
		c0,0.6,0.1,1.1-0.2,1.7c-0.1,0-0.2,0-0.3,0h-8.4c-0.2-0.2-0.3-0.4-0.3-0.7c0-0.2,0-0.5,0-0.7C130.3,87.5,130.4,87.3,130.6,87.1z"/>
	<path class="st3" d="M129.8,92l0.4,0h7.9c0.2,0,0.3,0,0.5,0c0.1,0.3,0.1,0.5,0.1,0.8c0,0.2,0,0.3,0,0.5c0,0.3,0,0.6-0.2,0.8
		c-0.1,0-0.3,0-0.4,0h-8.2c-0.2-0.2-0.3-0.4-0.2-0.7c0-0.2,0-0.5,0-0.7C129.5,92.5,129.6,92.2,129.8,92z"/>
	<path class="st2" d="M137.1,79.7l0.1,0c0.1,0.1,0.2,0.3,0.2,0.4c0,0.6,0.1,1.1-0.2,1.7c-0.1,0-0.3,0-0.4,0h-5.2h-3.1
		c-0.2-0.1-0.3-0.3-0.2-0.5c0-0.3,0-0.7,0-1c0-0.2,0.1-0.4,0.2-0.6c0.1,0,0.3,0,0.4,0h7.7C136.9,79.7,137,79.7,137.1,79.7z"/>
	<path class="st2" d="M130.9,96.9l0.4-0.1c0.1,0,0.3,0.1,0.4,0.1c1.2,0,2.4,0,3.5,0c1.3,0,2.6,0,3.9,0c0.2,0,0.3,0,0.5,0.1
		c0.1,0.2,0.2,0.5,0.2,0.8c0,0.1,0,0.3,0,0.4c0,0.3,0,0.6-0.2,0.9h-0.5h-7.7c-0.1,0-0.3,0-0.4,0c-0.2-0.2-0.3-0.4-0.2-0.7
		c0-0.3,0-0.6,0-0.9C130.7,97.3,130.7,97.1,130.9,96.9z"/>
	<path class="st4" d="M148.5,64.6l-1.5-0.2c0,0,0,0,0,0l-0.2,0c0-0.1,0-0.1,0-0.2c-0.1-0.6-0.4-1.2-0.7-1.8
		c-0.2-0.4-0.5-0.8-0.8-1.2c-0.1-0.1-0.2-0.1-0.3-0.1c-0.2-0.3-0.4-0.5-0.6-0.8c-0.3-0.4-0.2-1,0.2-1.4c0.4-0.4,1.1-0.6,1.7-0.5
		c0.2,0.1,0.5,0.2,0.7,0.3c0.2,0.1,0.3,0.2,0.5,0.4c-0.1,0.1-0.1,0.2,0,0.3c0.2,0.7,0.4,1.5,0.6,2.2c0.1,0.4,0.2,0.9,0.3,1.3
		C148.4,63.4,148.5,64,148.5,64.6z"/>
	<path class="st5" d="M152.1,59.7c0,0.1,0,0.2-0.1,0.3c-0.3,0.9-0.5,1.8-0.7,2.7c-0.1,0.4-0.1,0.8-0.1,1.2c0,0.2,0,0.4-0.1,0.6
		c0,0.1,0,0.2,0.1,0.3l-1-0.1c-0.2,0-0.4-0.1-0.6-0.1c0-0.1,0-0.3,0-0.4c-0.1-0.6-0.2-1.2-0.3-1.9c-0.1-0.4-0.1-0.8-0.2-1.3
		c0-0.4-0.1-0.7-0.1-1.1c-0.1-0.3-0.1-0.7,0-1c0.5-0.3,1.1-0.5,1.7-0.4c0.5,0.1,1,0.4,1.4,0.8C152.1,59.5,152.1,59.6,152.1,59.7z"/>
	<path class="st1" d="M148.9,59c-0.1,0.3-0.1,0.7,0,1c0.1,0.4,0.1,0.7,0.1,1.1c0.1,0.4,0.1,0.8,0.2,1.3c0.1,0.6,0.2,1.2,0.3,1.9
		c0,0.1,0,0.3,0,0.4l-1.1-0.1c0-0.6-0.1-1.2-0.2-1.8c-0.1-0.4-0.2-0.9-0.3-1.3c-0.2-0.8-0.4-1.5-0.6-2.2c0-0.1-0.1-0.2,0-0.3
		c0.2,0.2,0.5,0.4,0.7,0.6L148.9,59z"/>
	<path class="st6" d="M130.9,99.1c0.1,0,0.3,0,0.4,0h7.7h0.5c0.4,0,0.9,0,1.3,0c0.2,0,0.5-0.1,0.6-0.2c0,0.2,0,0.4-0.2,0.5
		c0,0,0,0.1,0,0.1s-0.1,0-0.1,0c-1.2,0-2.3,0-3.5,0c-1.6,0-3.3,0-4.9,0h-1.5h-1.4c-0.1,0-0.1,0-0.2,0c-0.3,0-0.4-0.2-0.4-0.6
		c0.1,0.2,0.3,0.3,0.6,0.3C130.2,99.1,130.5,99.1,130.9,99.1z"/>
	<path class="st7" d="M138.5,92c-0.2,0-0.3,0-0.5,0h-7.9c-0.1-0.2-0.3-0.3-0.2-0.6c0,0,0.1,0,0.1,0.1c0.1,0.1,0.3,0.2,0.5,0.2
		c0.4,0,0.7,0,1.1,0h0.3c2.6,0,5.1,0,7.7,0c0.2,0,0.5,0,0.7-0.1c0.5,0,1,0,1.5,0c0.3,0,0.4-0.1,0.4-0.5c0-0.4,0-0.9,0-1.3l0.1,0.1
		c0,0.5,0,1,0,1.5c0,0.4-0.2,0.6-0.6,0.6c-0.4,0-0.8,0-1.1,0c-0.1,0-0.2,0-0.3,0.1c-0.1,0-0.2,0-0.3,0C139.5,92,139,92,138.5,92z"/>
	<path class="st8" d="M130.6,89.2h8.4c0.1,0,0.2,0,0.3,0c0.5,0,0.9,0,1.4,0c0.4,0,0.5-0.1,0.5-0.5c0-0.4,0-0.9,0-1.3
		c0,0.1,0,0.2,0,0.3c0,0.3,0,0.6,0,0.9c0,0.3,0,0.7-0.3,0.9h0.8c-0.3,0-0.5,0-0.8,0c-0.3,0-0.5,0-0.8,0c-0.1,0-0.2,0-0.3,0h-8.2
		c-0.1,0-0.2,0-0.2,0l-1.5,0h-0.6c-0.4,0-0.5-0.1-0.6-0.5c0,0,0.1,0,0.1,0.1c0.1,0.1,0.2,0.2,0.4,0.2L130.6,89.2z"/>
	<path class="st8" d="M139.6,97c-0.2,0-0.3,0-0.5-0.1c-1.3,0-2.6,0-3.9,0c-1.2,0-2.4,0-3.5,0c-0.1,0-0.3,0-0.4-0.1
		c-0.2-0.1-0.3-0.3-0.2-0.5c0.2,0.2,0.5,0.3,0.8,0.3c0.3,0,0.5,0,0.8,0c0.5,0,0.9,0,1.4,0h6.9h0.5c0.4,0,0.9,0,1.3,0
		c0.3,0,0.5-0.1,0.7-0.2c0,0.4-0.2,0.5-0.5,0.5h-1.3c-0.1,0-0.2,0-0.3,0c-0.1,0-0.3,0-0.4,0c-0.4,0-0.7,0-1.1-0.1
		C139.8,96.9,139.7,96.9,139.6,97z"/>
	<path class="st8" d="M131.6,84.6h-2c-0.4,0-0.5-0.1-0.6-0.5c0,0,0.1,0,0.1,0c0.1,0.2,0.3,0.2,0.6,0.2c0.3,0,0.7,0,1,0h0.3
		c2.6,0,5.1,0,7.7,0c0.2,0,0.5,0,0.7-0.1h1.2c0.3,0,0.6,0,0.8-0.2c0,0,0,0,0,0c0,0.1,0,0.3-0.1,0.4c0,0,0,0.1,0,0.2L131.6,84.6
		L131.6,84.6z"/>
	<path class="st7" d="M139.2,87.1c-0.2,0-0.3,0-0.5,0h-7.1l-0.1-0.1c-0.1-0.1-0.2-0.2-0.2-0.4c0.1,0,0.1,0,0.2,0.1
		c0.1,0,0.2,0.1,0.4,0.1c0.4,0,0.8,0,1.2,0c0.1,0,0.2,0,0.4,0c2.5,0,5.1,0,7.6,0c0.2,0,0.5,0,0.7-0.1c0.5,0,0.9,0,1.4,0
		c0.2,0,0.4-0.1,0.5-0.2c0,0.4-0.1,0.6-0.4,0.6c-0.1,0-0.2,0-0.3,0l-2,0L139.2,87.1z"/>
	<path class="st8" d="M129.8,94.1h8.2c0.1,0,0.3,0,0.4,0c0.4,0,0.9,0,1.3,0c0.3,0,0.5-0.1,0.7-0.2c0.1,0.2-0.1,0.4-0.2,0.5h-0.8
		h-6.7h-1.5h-2.6c-0.4,0-0.6-0.2-0.6-0.6c0.1,0.2,0.4,0.3,0.7,0.3C129.1,94.1,129.5,94.1,129.8,94.1z"/>
	<path class="st8" d="M128.6,81.8h3.1h5.2c0.1,0,0.3,0,0.4,0c0.4,0,0.9,0,1.3,0c0.2,0,0.5-0.1,0.6-0.2c0.1,0.2-0.1,0.4-0.2,0.5H131
		c-0.1,0-0.2,0-0.3,0l-1.4,0h-1.6c-0.4,0-0.5-0.1-0.6-0.6c0.1,0.2,0.3,0.2,0.5,0.3C127.8,81.8,128.2,81.8,128.6,81.8z"/>
	<path class="st9" d="M129.2,82.2l1.4,0c-0.2,0.3-0.3,0.7-0.2,1c0,0,0,0.1,0,0.1c-0.1,0.4,0,0.7,0.2,1c-0.3,0-0.7,0-1,0
		c-0.2,0-0.4,0-0.6-0.2c0,0-0.1,0-0.1,0c0-0.5,0-1,0-1.4c0-0.1,0.1-0.2,0.1-0.3C129.1,82.3,129.1,82.2,129.2,82.2z"/>
	<path class="st9" d="M130.9,99.1c-0.4,0-0.7,0-1.1,0c-0.2,0-0.5-0.1-0.6-0.3c0-0.1,0-0.2,0-0.4c0-0.3,0-0.7,0-1
		c0-0.3,0.2-0.5,0.4-0.5c0,0,0,0,0.1,0c0.4,0,0.8,0,1.2,0c0,0,0,0,0.1,0c-0.2,0.1-0.3,0.4-0.2,0.6c0,0.3,0,0.6,0,0.9
		C130.6,98.6,130.7,98.9,130.9,99.1z"/>
	<path class="st9" d="M131.3,94.5h1.5c-0.2,0.2-0.3,0.5-0.2,0.7c0,0.2,0,0.4,0,0.6c0,0.3,0,0.6,0.2,0.8c0,0,0,0.1,0,0.1
		c-0.3,0-0.5,0-0.8,0c-0.3,0.1-0.6-0.1-0.8-0.3c0-0.5,0-0.9,0-1.4C131.1,94.8,131.2,94.6,131.3,94.5z"/>
	<path class="st9" d="M128.6,81.8c-0.4,0-0.8,0-1.2,0c-0.2,0-0.4-0.1-0.5-0.3c0,0,0-0.1,0-0.1c0-0.4,0-0.9,0-1.3
		c0-0.2,0.2-0.4,0.4-0.4c0,0,0,0,0,0c0.4,0,0.8,0,1.3,0c-0.2,0.2-0.2,0.4-0.2,0.6c0,0.3,0,0.7,0,1C128.4,81.5,128.5,81.7,128.6,81.8
		z"/>
	<path class="st9" d="M133.1,86.7c-0.4,0-0.8,0-1.2,0c-0.1,0-0.2-0.1-0.4-0.1c-0.1,0-0.1,0-0.2-0.1c0-0.5,0-1,0-1.5
		c0-0.2,0.1-0.3,0.2-0.5h1.5c-0.2,0.2-0.3,0.4-0.2,0.7c0,0.3,0,0.5,0,0.8C132.7,86.3,132.9,86.6,133.1,86.7z"/>
	<path class="st9" d="M131.3,99.4h1.5c-0.2,0.2-0.3,0.4-0.2,0.7c0,0.3,0,0.6,0,0.9c0,0.2,0.1,0.5,0.3,0.6c-0.4,0-0.7,0-1,0
		c-0.3,0-0.5-0.1-0.7-0.3c0-0.4,0-0.9,0-1.3L131.3,99.4z"/>
	<path class="st9" d="M130.1,89.5l1.5,0c0,0,0,0.1,0,0.1c-0.1,0.2-0.2,0.4-0.2,0.6c0,0.2,0,0.5,0,0.7c0,0.3,0.1,0.6,0.3,0.8
		c-0.4,0-0.7,0-1.1,0c-0.2,0-0.4-0.1-0.5-0.2c0,0-0.1-0.1-0.1-0.1c0-0.1,0-0.3,0-0.4c0-0.2,0-0.4,0-0.6
		C129.9,90.1,129.9,89.8,130.1,89.5z"/>
	<path class="st9" d="M130.6,89.2h-1.2c-0.1,0-0.3-0.1-0.4-0.2c0,0-0.1-0.1-0.1-0.1c0-0.5,0-0.9,0-1.4c0-0.3,0.2-0.5,0.5-0.5
		c0,0,0.1,0,0.1,0c0.4,0,0.7,0,1.1,0c-0.2,0.2-0.3,0.5-0.3,0.8c0,0.2,0,0.5,0,0.7C130.3,88.8,130.4,89,130.6,89.2z"/>
	<path class="st9" d="M129.8,94.1c-0.3,0-0.7,0-1,0c-0.3,0-0.5-0.1-0.7-0.3c0-0.5,0-0.9,0-1.4c0-0.2,0.1-0.5,0.4-0.5c0,0,0,0,0,0
		c0.4,0,0.8,0,1.2,0c-0.2,0.2-0.2,0.4-0.2,0.7c0,0.2,0,0.5,0,0.7C129.5,93.7,129.6,94,129.8,94.1z"/>
	<path class="st10" d="M170.1,67.3c-0.1,0.4-0.3,0.9-0.4,1.3c0,0.1,0,0.2,0,0.2h0l-0.5-0.6l-0.3,0.3c0.1-0.2,0.1-0.5,0.2-0.7
		c0.1-0.4,0.2-0.7,0.3-1.1c0-0.1,0.1-0.1,0.1-0.2L170.1,67.3z"/>
	<path class="st1" d="M145.1,61c0.1,0,0.2,0.1,0.3,0.1c0.3,0.3,0.6,0.7,0.8,1.2c0.3,0.6,0.5,1.2,0.7,1.8c0,0.1,0,0.1,0,0.2l-0.6-0.1
		c-0.1-1-0.4-2-0.9-2.8C145.2,61.3,145.1,61.2,145.1,61z"/>
	<path class="st9" d="M131.5,87l0.1,0.1L131.5,87L131.5,87z"/>
	<path class="st11" d="M149.5,79.1v-1.1c0.6-0.1,1.2-0.1,1.8,0v1.1c1.6,0.4,2.4,1.4,2.5,3h-2.1c0-0.1-0.1-0.2-0.1-0.3
		c-0.2-0.8-0.7-1.1-1.4-1c-0.5,0-0.9,0.3-1,0.7c-0.2,0.5-0.1,1,0.3,1.4c0.2,0.2,0.5,0.3,0.7,0.4c0.3,0.1,0.6,0.2,0.9,0.4
		c0.7,0.2,1.4,0.6,1.9,1.1c0.5,0.4,0.8,1,0.9,1.7c0.2,0.8,0.1,1.5-0.2,2.3c-0.2,0.7-0.8,1.3-1.5,1.6c-0.3,0.1-0.6,0.2-1,0.3v1.4
		h-1.8v-1.4c-0.9-0.1-1.7-0.6-2.2-1.4c-0.4-0.6-0.6-1.2-0.6-1.9h2.1c0.1,0.2,0.1,0.3,0.2,0.5c0.2,0.6,0.8,1,1.4,1
		c0.2,0,0.5,0,0.7-0.1c0.3-0.1,0.6-0.3,0.7-0.6c0.3-0.6,0.1-1.3-0.4-1.8c-0.3-0.2-0.5-0.4-0.8-0.5c-0.4-0.2-0.9-0.4-1.3-0.5
		c-0.5-0.2-1-0.5-1.5-1c-0.4-0.4-0.7-0.9-0.8-1.5c-0.2-0.8-0.1-1.6,0.2-2.3c0.3-0.6,0.8-1.1,1.4-1.4
		C148.9,79.3,149.2,79.3,149.5,79.1z"/>
	<path class="st2" d="M132.7,96.6C132.7,96.6,132.7,96.6,132.7,96.6c-0.2-0.3-0.2-0.6-0.2-0.9c0-0.2,0-0.4,0-0.6
		c0-0.3,0.1-0.5,0.2-0.7h6.7h0.8l0.8,0h0.2h0h0l0.1,0c0.2,0.3,0.2,0.6,0.2,0.9c0,0.1,0,0.2,0,0.3c0,0.3,0,0.6-0.2,0.9H141h-6.9
		C133.6,96.6,133.2,96.6,132.7,96.6z"/>
	<path class="st12" d="M141.3,84.1C141.3,84.1,141.3,84.1,141.3,84.1c-0.3,0.2-0.5,0.2-0.8,0.2h-1.2c0,0,0-0.1,0-0.1
		c0.1-0.1,0.2-0.3,0.1-0.4c0-0.3,0-0.5,0-0.8c0-0.3,0-0.6-0.2-0.8l0.6,0c0.3,0,0.6,0,0.8,0c0.3,0,0.5,0.1,0.6,0.4v0.3L141.3,84.1z"
		/>
	<path class="st13" d="M143.5,100.6l0,0.6c0,0.2-0.2,0.4-0.5,0.4c-0.5,0-1,0-1.5,0c0.2-0.2,0.2-0.5,0.2-0.8c0-0.2,0-0.4,0-0.6
		c0-0.2,0-0.5-0.1-0.7c0.1,0,0.3,0,0.4,0c0.1,0,0.1,0,0.2-0.1l0.1,0l0.9,0l0.1,0.1c0.2,0,0.2,0.2,0.3,0.4
		C143.5,100.1,143.5,100.3,143.5,100.6z"/>
	<path class="st13" d="M141.5,96.6c0.2-0.3,0.2-0.6,0.2-0.9c0-0.1,0-0.2,0-0.3c0-0.3,0-0.6-0.2-0.9l1.3,0c0.1,0,0.2,0,0.4,0l0.1,0
		l0.3,0.3c0,0.5,0,1.1,0,1.6c-0.2,0.2-0.4,0.3-0.7,0.2C142.3,96.6,141.9,96.6,141.5,96.6z"/>
	<path class="st13" d="M139.3,81.6c-0.2,0.2-0.4,0.3-0.6,0.2c-0.4,0-0.9,0-1.3,0c0.3-0.5,0.1-1.1,0.2-1.7c0-0.2-0.1-0.3-0.2-0.4
		l1.6,0c0.3,0,0.4,0.2,0.5,0.4c0,0.1,0,0.2,0,0.3C139.3,80.8,139.3,81.2,139.3,81.6z"/>
	<path class="st12" d="M143.7,86.5c-0.1,0.2-0.3,0.3-0.5,0.2c-0.5,0-0.9,0-1.4,0c0.1-0.2,0.1-0.5,0.1-0.8c0-0.2,0-0.5,0-0.7
		c0-0.2,0-0.4-0.2-0.6l0.2,0c0.4,0,0.8,0,1.2,0c0.3,0,0.5,0.1,0.6,0.4l0,1.3L143.7,86.5L143.7,86.5z"/>
	<path class="st12" d="M140.2,89.5c0.3,0,0.5,0,0.8,0c0.3,0,0.5,0,0.8,0l0.1,0c0.2,0.1,0.3,0.1,0.4,0.4c0,0.4,0,0.9,0,1.3
		c0,0.3-0.1,0.5-0.4,0.5c-0.5,0-1,0-1.5,0c0.2-0.3,0.2-0.6,0.2-0.9c0-0.1,0-0.2,0-0.3C140.5,90.1,140.4,89.8,140.2,89.5z"/>
	<path class="st14" d="M141.9,89.5L141.9,89.5l-0.8,0c0.2-0.3,0.3-0.6,0.3-0.9c0-0.3,0-0.6,0-0.9c0-0.1,0-0.2,0-0.3
		c0-0.2-0.2-0.2-0.3-0.3l2,0c0.1,0,0.2,0,0.3,0c0.3,0,0.5-0.2,0.4-0.6c0,0,0-0.1,0-0.1c0,0,0-0.1,0-0.1l0-1.3c0.3,0,0.5,0.2,0.6,0.5
		c0,0,0,0.1,0,0.1c0,0.5,0,0.9,0,1.4c0,0.4-0.2,0.5-0.5,0.5h-2.1c0,0.1,0.1,0.1,0.1,0.2c0.1,0.1,0.2,0.3,0.2,0.5
		C141.9,88.6,141.9,89,141.9,89.5z"/>
	<path class="st14" d="M141.1,94.4l-0.8,0c0.1-0.2,0.3-0.3,0.2-0.5c0-0.5,0-1,0-1.4c0-0.2-0.1-0.3-0.2-0.4c0.1,0,0.2,0,0.3-0.1
		c0.4,0,0.8,0,1.1,0c0.4,0,0.6-0.2,0.6-0.6c0-0.5,0-1,0-1.5c0.3,0,0.6,0.2,0.6,0.5c0,0,0,0.1,0,0.1c0,0.4,0,0.9,0,1.3
		c0,0.3-0.2,0.6-0.5,0.6c0,0-0.1,0-0.1,0h-1.4c0,0.1,0.1,0.1,0.1,0.2c0,0.1,0.1,0.2,0.1,0.4C141.1,93.5,141.1,93.9,141.1,94.4z"/>
	<path class="st14" d="M143.5,96.4c0-0.5,0-1.1,0-1.6c0.1,0,0.1,0.1,0.2,0.1c0.2,0.1,0.4,0.3,0.3,0.5c0,0.5,0,1,0,1.5
		c0,0.2-0.2,0.5-0.4,0.5c0,0-0.1,0-0.1,0h-1.7c0,0,0.1,0.1,0.1,0.1c0.1,0.1,0.2,0.3,0.2,0.5c0,0.5,0,0.9,0,1.4l-0.1,0h-0.6h-0.1
		c0,0,0-0.1,0-0.1c0.2-0.1,0.2-0.3,0.2-0.5c0-0.5,0-0.9,0-1.4c0-0.2-0.1-0.4-0.3-0.4c0.1,0,0.2,0,0.3,0h1.3
		C143.3,96.9,143.5,96.7,143.5,96.4z"/>
	<path class="st15" d="M147.5,69.2h1.1c0,0.2-0.1,0.3-0.1,0.4c-0.2,0.4-0.3,0.8-0.5,1.2c-0.2,0.5-0.6,0.9-1,1.1
		c-0.1,0-0.2,0.1-0.2,0c-0.1-0.1-0.1-0.2-0.1-0.3c0.1-0.1,0.1-0.2,0.2-0.3c0.2-0.4,0.4-0.9,0.5-1.3
		C147.4,69.7,147.4,69.4,147.5,69.2z"/>
	<path class="st14" d="M139.3,81.6c0-0.4,0-0.8,0-1.2c0-0.1,0-0.2,0-0.3c0.4,0,0.6,0.2,0.6,0.6v1.4l-0.6,0h-0.1h-0.1l0,0
		C139.2,82,139.4,81.8,139.3,81.6z"/>
	<path class="st14" d="M141.9,84.6l-0.2,0h-0.2h-0.1h-0.2c0-0.1,0-0.1,0-0.2c0.1-0.1,0.1-0.2,0.1-0.4l0-1.2v-0.3
		c0.4,0,0.5,0.2,0.5,0.6C141.9,83.6,141.9,84.1,141.9,84.6z"/>
	<path class="st1" d="M143.5,100.6c0-0.3,0-0.5,0-0.8c0,0,0.1,0,0.1,0c0.2,0,0.4,0.1,0.4,0.4c0,0,0,0,0,0.1c0,0.2,0,0.3,0,0.5
		L143.5,100.6z"/>
	<path class="st6" d="M143.2,99.4l-0.1-0.1L143.2,99.4z"/>
	<path class="st14" d="M143.2,94.4l-0.1,0L143.2,94.4z"/>
	<path class="st14" d="M141.3,94.4L141.3,94.4L141.3,94.4C141.3,94.4,141.3,94.4,141.3,94.4C141.3,94.4,141.3,94.4,141.3,94.4z"/>
	<path class="st16" d="M141.5,101.5c0.5,0,1,0,1.5,0c0.2,0,0.4-0.1,0.5-0.4c0.1,0.4-0.1,0.7-0.5,0.7h-11.3c-0.4,0-0.5-0.2-0.5-0.6
		c0.1,0.2,0.4,0.3,0.7,0.3c0.3,0,0.7,0,1,0c0.1,0,0.2,0,0.3,0h8.1C141.3,101.5,141.4,101.5,141.5,101.5z"/>
	<path class="st1" d="M147,64.6c0.1-0.1,0.1-0.1,0.2,0.1l-0.1,0L147,64.6z"/>
	<path class="st17" d="M168.7,72.1l-0.7-0.4c0.1-0.4,0.2-0.8,0.3-1.2c0.2-0.7,0.4-1.3,0.6-1.9l0.3-0.3l0.5,0.6
		C169.3,69.9,169,71,168.7,72.1L168.7,72.1z"/>
	<path class="st13" d="M141,87.1c0.1,0.1,0.3,0.2,0.3,0.3c0,0.4,0,0.9,0,1.3s-0.1,0.5-0.5,0.5c-0.5,0-1,0-1.4,0
		c0.3-0.5,0.2-1.1,0.2-1.7c0-0.1-0.1-0.2-0.1-0.3c0-0.1-0.1-0.1-0.1-0.2L141,87.1z"/>
	<path class="st13" d="M140.3,92.1c0.2,0.1,0.2,0.2,0.2,0.4c0,0.5,0,1,0,1.4c-0.2,0.2-0.4,0.3-0.7,0.2c-0.4,0-0.9,0-1.3,0
		c0.2-0.2,0.2-0.5,0.2-0.8c0-0.2,0-0.3,0-0.5c0-0.3,0-0.6-0.1-0.8c0.5,0,1,0,1.4,0C140.1,92,140.2,92,140.3,92.1z"/>
	<path class="st13" d="M141.3,96.9c0.2,0.1,0.3,0.3,0.3,0.4c0,0.5,0,0.9,0,1.4c-0.2,0.2-0.4,0.3-0.6,0.2c-0.4,0-0.9,0-1.3,0
		c0.2-0.3,0.2-0.6,0.2-0.9c0-0.1,0-0.3,0-0.4c0-0.3,0-0.5-0.2-0.8c0.1,0,0.2,0,0.3-0.1c0.4,0,0.7,0,1.1,0.1
		C141.1,97,141.2,96.9,141.3,96.9z"/>
	<path class="st3" d="M141.5,101.5c-0.1,0-0.2,0-0.3,0h-8.1c-0.1,0-0.2,0-0.3,0c-0.2-0.1-0.3-0.4-0.3-0.6c0-0.3,0-0.6,0-0.9
		c0-0.2,0.1-0.5,0.2-0.7c1.6,0,3.3,0,4.9,0c1.2,0,2.3,0,3.5,0c0,0,0.1,0,0.1,0h0.1l0.1,0.1c0.1,0.2,0.1,0.4,0.1,0.7
		c0,0.2,0,0.4,0,0.6C141.7,101,141.6,101.3,141.5,101.5z"/>
	<path class="st2" d="M140.2,89.5c0.2,0.3,0.3,0.6,0.2,1c0,0.1,0,0.2,0,0.3c0,0.3,0,0.6-0.2,0.9c-0.2,0-0.5,0.1-0.7,0.1
		c-2.6,0-5.1,0-7.7,0h-0.3c-0.2-0.2-0.3-0.5-0.3-0.8c0-0.2,0-0.5,0-0.7c0-0.2,0-0.4,0.2-0.6c0,0,0-0.1,0-0.1c0.1,0,0.2,0,0.2,0h8.2
		C140.1,89.5,140.2,89.5,140.2,89.5z"/>
	<path class="st2" d="M139.2,82.1h0.1c0.2,0.2,0.2,0.5,0.2,0.8c0,0.3,0,0.5,0,0.8c0,0.2,0,0.3-0.1,0.4c0,0,0,0.1,0,0.1
		c-0.2,0-0.5,0.1-0.7,0.1c-2.6,0-5.1,0-7.7,0h-0.3c-0.2-0.3-0.3-0.7-0.2-1c0,0,0-0.1,0-0.1c-0.1-0.4,0-0.7,0.2-1c0.1,0,0.2,0,0.3,0
		h8.1l0,0L139.2,82.1z"/>
	<path class="st2" d="M141.5,84.6h0.2c0.1,0.2,0.2,0.4,0.2,0.6c0,0.2,0,0.5,0,0.7c0,0.3,0,0.5-0.1,0.8c-0.2,0-0.5,0.1-0.7,0.1
		c-2.5,0-5.1,0-7.6,0c-0.1,0-0.2,0-0.4,0c-0.2-0.1-0.3-0.4-0.3-0.7c0-0.3,0-0.5,0-0.8c0-0.2,0.1-0.5,0.2-0.7h8.1h0.2L141.5,84.6z"/>
	<path class="st6" d="M141.5,99.4L141.5,99.4l0.6-0.1c-0.1,0-0.1,0.1-0.2,0.1C141.8,99.5,141.7,99.4,141.5,99.4z"/>
	<path class="st7" d="M143.7,86.3C143.7,86.3,143.7,86.3,143.7,86.3C143.7,86.3,143.7,86.3,143.7,86.3z"/>
	<path class="st12" d="M139.2,82.1h-0.1H139.2z"/>
	<path class="st12" d="M141.5,84.6h-0.1H141.5z"/>
	<path class="st18" d="M163.6,66.1c0.6,0,1.1,0.5,1.1,1.1c0,0,0,0,0,0c0,0.5-0.4,1-0.9,1c0,0-0.1,0-0.1,0c-0.6,0-1.1-0.5-1.1-1.1
		C162.6,66.6,163.1,66,163.6,66.1z"/>
	<path class="st19" d="M163.5,74l0.5,0.2l-0.1,0.4l-0.5-0.1c-0.3,0.5-0.6,1-1.3,0.9l0-0.8c0.5-0.1,0.7-0.4,0.8-0.9
		c0-0.1,0-0.3-0.1-0.4c-0.1-0.1-0.2-0.2-0.4-0.1c0,0-0.1,0-0.1,0.1c-0.2,0.3-0.3,0.5-0.5,0.8c-0.1,0.2-0.2,0.3-0.4,0.5
		c-0.4,0.3-1,0.2-1.3-0.2c0,0,0-0.1-0.1-0.1c-0.1-0.2-0.2-0.5-0.2-0.8c0-0.2,0-0.3-0.2-0.4c-0.1,0-0.2-0.1-0.1-0.3
		c0-0.1,0.1-0.1,0.1-0.2l0.4,0.1c0.1-0.2,0.2-0.3,0.3-0.5c0.2-0.3,0.5-0.4,0.8-0.4c0,0.2,0.1,0.5,0,0.7c0,0-0.1,0.1-0.2,0.1
		c-0.4,0.1-0.5,0.7-0.5,1c0,0.1,0.2,0.2,0.3,0.2c0,0,0.1,0,0.1-0.1c0.1-0.1,0.2-0.3,0.3-0.4c0.1-0.2,0.2-0.4,0.4-0.6
		c0.3-0.5,1-0.6,1.4-0.2c0.1,0.1,0.2,0.2,0.3,0.3c0.2,0.3,0.3,0.8,0.2,1.2C163.5,73.9,163.5,74,163.5,74z"/>
	<g>
		<path class="st5" d="M137.1,79.7c0.4-0.6,0.7-1.3,1.2-1.9c0.8-1.3,1.8-2.6,2.8-3.8c1-1.2,2-2.3,3-3.3c0.3-0.3,0.6-0.6,0.9-0.9
			c0.2-0.2,0.3-0.4,0.5-0.6h1.2l0.8,0c0,0.3-0.1,0.5-0.2,0.8c-0.2,0.4-0.3,0.9-0.5,1.3c-0.1,0.1-0.1,0.2-0.2,0.3
			c-0.1,0.1,0,0.2,0.1,0.3c0.1,0.1,0.2,0,0.2,0c0.5-0.2,0.8-0.6,1-1.1c0.2-0.4,0.3-0.8,0.5-1.2c0.1-0.1,0.1-0.3,0.1-0.4
			c0,0,0.1,0,0.1,0h3.2c0,0,0.1,0,0.1,0c0,0,0,0.1,0.1,0.1l0.9,2.6c0.1,0.4,0.3,0.8,0.4,1.2c0.1,0.3,0.4,0.5,0.7,0.5
			c0.3,0,0.6-0.2,0.6-0.5c0.1-0.2,0.1-0.5,0-0.7c-0.2-0.4-0.3-0.9-0.4-1.3c0.1,0,0.1,0.1,0.2,0.1c0.5,0.6,0.9,1.2,1.4,1.9
			c0.6,0.9,1.2,1.8,1.7,2.8c0.6,1.2,1.1,2.4,1.5,3.7c0.1,0.4,0.2,0.9,0.3,1.3c0.1,0.8,0.3,1.5,0.4,2.3c0.1,0.4,0.1,0.9,0.1,1.4
			c0,0.5,0,1,0,1.6c0,0.6-0.1,1.2-0.2,1.7c-0.1,1-0.4,2.1-0.7,3c-0.4,1.1-0.8,2.2-1.4,3.2c-0.3,0.6-0.7,1.2-1,1.7
			c-0.4,0.6-0.8,1.1-1.2,1.6c-0.5,0.6-1,1.3-1.6,1.9c-0.3,0.3-0.6,0.7-0.8,1c-0.4,0.5-0.8,0.9-1.2,1.3c-0.1,0.1-0.1,0.1-0.2,0.2
			c-0.9,0-1.8,0-2.7,0c-0.3,0-0.6,0-0.9-0.1c-0.7-0.1-1.4-0.2-2.1-0.4c-0.5-0.2-1-0.3-1.5-0.4c0,0-0.1,0-0.1-0.1c0-0.2,0-0.3,0-0.5
			c0-0.2-0.1-0.4-0.3-0.4c0,0,0,0-0.1,0c0,0-0.1,0-0.1,0c-0.1-0.1-0.1-0.3-0.3-0.4l-0.1-0.1l-0.9,0c0-0.5,0-0.9,0-1.4
			c0-0.2-0.1-0.4-0.2-0.5c0,0-0.1-0.1-0.1-0.1h1.7c0.2,0,0.5-0.1,0.5-0.4c0,0,0-0.1,0-0.1c0-0.5,0-1,0-1.5c0-0.2-0.1-0.4-0.3-0.5
			c-0.1,0-0.1-0.1-0.2-0.1l-0.3-0.3l-0.1,0c-0.1,0-0.2,0-0.4,0l-1.3,0l-0.1,0c0,0,0,0,0,0c0,0,0,0,0,0h-0.2c0-0.5,0-1,0-1.5
			c0-0.1,0-0.2-0.1-0.4c0-0.1,0-0.1-0.1-0.2h1.4c0.3,0,0.6-0.2,0.6-0.5c0,0,0-0.1,0-0.1c0-0.4,0-0.9,0-1.3c0-0.3-0.2-0.6-0.5-0.6
			c0,0-0.1,0-0.1,0l-0.1-0.1c0-0.2-0.2-0.3-0.4-0.4c0-0.5,0-0.9,0-1.4c0-0.2,0-0.4-0.2-0.5c0-0.1-0.1-0.1-0.1-0.2h2.1
			c0.4,0,0.5-0.2,0.5-0.5c0-0.5,0-0.9,0-1.4c0-0.3-0.2-0.5-0.5-0.6c0,0-0.1,0-0.1,0c-0.1-0.3-0.3-0.5-0.6-0.4c-0.4,0-0.8,0-1.2,0
			c0-0.5,0-1,0-1.5c0-0.4-0.2-0.5-0.5-0.6c-0.1-0.3-0.3-0.5-0.6-0.4c-0.3,0-0.6,0-0.8,0v-1.4c0-0.4-0.2-0.6-0.6-0.6
			c-0.1-0.2-0.2-0.4-0.5-0.4l-1.6,0L137.1,79.7z M149.5,79.1c-0.3,0.1-0.6,0.2-0.8,0.3c-0.6,0.3-1.1,0.8-1.4,1.4
			c-0.3,0.7-0.4,1.5-0.2,2.3c0.1,0.6,0.4,1.1,0.8,1.5c0.4,0.4,0.9,0.7,1.5,1c0.4,0.2,0.9,0.3,1.3,0.5c0.3,0.1,0.6,0.3,0.8,0.5
			c0.5,0.4,0.7,1.1,0.4,1.8c-0.1,0.3-0.4,0.6-0.7,0.6c-0.2,0-0.5,0.1-0.7,0.1c-0.6,0-1.2-0.4-1.4-1c-0.1-0.2-0.1-0.3-0.2-0.5h-2.1
			c0,0.7,0.2,1.3,0.6,1.9c0.5,0.8,1.3,1.2,2.2,1.4v1.4h1.8v-1.4c0.4-0.1,0.7-0.2,1-0.3c0.7-0.3,1.2-0.9,1.5-1.6
			c0.3-0.7,0.3-1.5,0.2-2.3c-0.1-0.7-0.5-1.2-0.9-1.7c-0.6-0.5-1.2-0.9-1.9-1.1c-0.3-0.1-0.6-0.2-0.9-0.4c-0.3-0.1-0.5-0.3-0.7-0.4
			c-0.5-0.4-0.5-0.9-0.3-1.4c0.1-0.4,0.5-0.7,1-0.7c0.7,0,1.2,0.3,1.4,1c0,0.1,0.1,0.2,0.1,0.3h2.1c-0.1-1.7-1-2.7-2.5-3v-1.1
			c-0.6-0.1-1.2-0.1-1.8,0L149.5,79.1z"/>
		<path class="st20" d="M144,100.8c0,0,0.1,0.1,0.1,0.1c0.5,0.2,1,0.3,1.5,0.4c0.7,0.2,1.4,0.3,2.1,0.4c0.3,0,0.6,0.1,0.9,0.1
			c0.9,0,1.8,0,2.7,0l1.4-0.1c0.2,0,0.3,0,0.5,0h7.6h14.2c0.1,0,0.2,0,0.4,0V100l1.8,0.2c0.5,0.1,1,0.1,1.5,0.2
			c0.6,0.1,1.1,0.2,1.6,0.5c0,0,0.1,0,0.1,0.1c0.2,0.1,0.2,0.2,0,0.4c-0.1,0.1-0.1,0.1-0.2,0.1c-0.4,0.2-0.9,0.3-1.4,0.4l-0.4,0.1
			c-0.4,0.1-0.8,0.1-1.2,0.2c-0.3,0-0.6,0.1-0.9,0.1c-0.3,0-0.6,0.1-0.8,0.1c-0.3,0-0.7,0-1,0.1c-0.5,0-1,0.1-1.4,0.2
			c0,0-0.1,0-0.1,0l-1.4,0.1c-0.7,0-1.5,0.1-2.2,0.1c-0.6,0.1-1.3,0.1-1.9,0.1c-0.6,0-1.1,0-1.7,0.1c-0.6,0-1.1,0-1.7,0.1
			c-1.2,0.1-2.5,0.1-3.7,0.1c-1.1,0-2.1,0-3.2,0.1c-3.6,0.1-7.2,0-10.9,0c-1.2,0-2.5,0-3.7-0.1c-0.7,0-1.5,0-2.2-0.1
			c-0.5,0-1.1-0.1-1.6-0.1c-0.4,0-0.8,0-1.2,0c-0.6,0-1.3,0-1.9-0.1c-0.4,0-0.8,0-1.1-0.1c-0.7-0.1-1.3-0.1-2-0.2h-0.1
			c-0.5,0-1.1,0-1.6-0.1s-1-0.1-1.5-0.2c-0.3,0-0.5,0-0.8-0.1c-0.5,0-1-0.1-1.4-0.1c-0.3,0-0.5-0.1-0.7-0.1
			c-0.4-0.1-0.8-0.1-1.1-0.2c-0.5-0.1-1.1-0.2-1.6-0.5c-0.1-0.1-0.2-0.1-0.2-0.3c0.1-0.2,0.3-0.3,0.5-0.4c0.5-0.2,0.9-0.3,1.4-0.3
			c0.6-0.1,1.2-0.2,1.8-0.3c0.6-0.1,1.2-0.1,1.8-0.2c0.5-0.1,1-0.1,1.6-0.2c0.2,0,0.3,0,0.5,0c0,0.4,0,0.9,0,1.3
			c0,0.4,0.1,0.6,0.5,0.6h11.3c0.4,0,0.6-0.2,0.5-0.7l0-0.6L144,100.8z"/>
		<path class="st21" d="M157.2,71.5c0.2-0.4,0.1-0.8-0.1-1.1c0.3-0.8,0.5-1.7,0.8-2.5c0.6-1.9,1.2-3.9,1.7-5.8c0.3-1,0.6-2,0.9-3
			c0,0,0-0.1,0.1-0.2c1.1,0.4,2.2,0.9,3.3,1.3s2.2,0.8,3.3,1.3l3.3,1.3l-0.3,1.1c-0.2,0.8-0.5,1.7-0.7,2.5c0,0.1,0,0.2-0.1,0.3
			c0,0.1-0.1,0.1-0.1,0.2c-0.1,0.4-0.2,0.7-0.3,1.1c-0.1,0.2-0.1,0.5-0.2,0.7c-0.2,0.6-0.4,1.3-0.6,1.9c-0.1,0.4-0.2,0.8-0.3,1.2
			c0,0.1-0.1,0.2-0.1,0.3c-0.3,1-0.6,2-0.9,3c-0.3,0.9-0.5,1.8-0.8,2.6l-0.5,1.8l-0.4,1.4c-0.1,0.3-0.2,0.6-0.3,0.9l-0.2,0.7
			l-0.1,0.2c-0.2-0.4-0.3-0.9-0.5-1.3c0-0.1,0-0.2-0.1-0.3c0.1-0.1,0.1-0.2,0.2-0.3c0.1-0.3,0.2-0.7,0.3-1c0.2-0.7,0.4-1.3,0.6-2
			c0.4-1.3,0.8-2.6,1.2-3.9c0.3-1,0.6-2,0.9-3c0.4-1.4,0.8-2.8,1.3-4.3c0.2-0.8,0.5-1.7,0.8-2.5c0-0.1,0-0.2,0-0.3
			c-1.4-0.5-2.7-1-4.1-1.6c-1.3-0.5-2.7-1-4-1.5c0,0.1-0.1,0.2-0.1,0.3l-0.6,2.2c-0.2,0.8-0.5,1.6-0.7,2.5c-0.2,0.8-0.4,1.5-0.7,2.3
			c-0.3,1.1-0.7,2.3-1,3.4c-0.1,0.3-0.1,0.5-0.2,0.8L157.2,71.5z"/>
		<path class="st22" d="M175.5,100v1.7c-0.2,0-0.3,0-0.4,0h-14.2h-7.6c-0.2,0-0.3,0-0.5,0c0.1,0,0.1,0,0.2-0.1
			c0.6-0.1,1.1-0.2,1.7-0.3c0.6-0.1,1.2-0.3,1.8-0.5c0.2-0.1,0.4-0.1,0.6-0.2c0.1,0,0.2,0,0.2,0l16.6,0.1c0.1,0,0.2,0,0.3,0v-8.5
			c0-0.1,0-0.2,0-0.4l0-0.1c0,0,0.1,0,0.1,0c0.2-0.1,0.5-0.2,0.7-0.4c0.1-0.1,0.3-0.1,0.5-0.2c0,0.1,0,0.2,0,0.4c0,2.7,0,5.4,0,8.1
			C175.5,99.8,175.5,99.9,175.5,100z"/>
		<path class="st22" d="M175,78.7c0.2,0.5,0.4,1,0.6,1.5c0.6,1.6,1.2,3.2,1.9,4.8c0.4,1.1,0.8,2.1,1.2,3.2c0,0.1,0,0.1,0.1,0.2
			c-0.2,0.1-0.3,0.2-0.5,0.3c-0.9,0.4-1.7,0.9-2.6,1.3c-0.1,0-0.1,0.1-0.2,0.1c0,0-0.1,0-0.1,0c-0.5,0.2-1,0.5-1.5,0.8
			c0,0,0,0.1-0.1,0.1c-0.1,0-0.2,0-0.2,0.1c-0.5,0.2-0.9,0.4-1.4,0.7c-0.3,0.2-0.6,0.3-0.9,0.5c0,0-0.1,0-0.1,0
			c-0.6,0.3-1.2,0.6-1.8,0.9c-0.4,0.2-0.9,0.5-1.3,0.7c-0.6,0.3-1.2,0.6-1.8,0.9l-1.5,0.8c-0.4,0.2-0.7,0.3-1.1,0.5
			c0,0-0.1,0.1-0.1,0.1c-0.3,0.1-0.6,0.2-0.8,0.4h-0.2c0.3-0.4,0.6-0.8,0.8-1.2c0.1-0.2,0.3-0.4,0.4-0.6c0.2-0.1,0.5-0.2,0.7-0.3
			c0.8-0.4,1.6-0.8,2.4-1.2c0.6-0.3,1.2-0.6,1.7-0.9L171,91c0.5-0.3,1.1-0.6,1.6-0.8c0.6-0.3,1.1-0.6,1.7-0.8l1.4-0.7
			c0.4-0.2,0.8-0.4,1.2-0.6c0.1,0,0.1-0.1,0.2-0.2l-0.3-0.8l-1.4-3.5c-0.3-0.9-0.7-1.8-1-2.7c-0.1-0.3-0.3-0.7-0.4-1c0,0,0,0,0-0.1
			l0-0.1c0.2-0.2,0.4-0.5,0.6-0.7C174.8,78.9,174.8,78.7,175,78.7z"/>
		<path class="st22" d="M170.1,67.3c0.1,0.1,0.3,0.2,0.4,0.4l2.6,2.7l2.4,2.5c0.5,0.5,0.9,1,1.4,1.5c0,0,0.1,0.1,0.1,0.1l-0.8,0.9
			l-1.6,2c0,0,0,0.1-0.1,0.1l-1.3,1.6c-0.5,0.7-1.1,1.3-1.6,2c-0.1,0.2-0.2,0.3-0.3,0.5c-0.1,0.1-0.2,0.2-0.2,0.3
			c-0.3,0.4-0.7,0.8-1,1.2c-0.7,0.9-1.4,1.7-2.1,2.6c-0.1,0.2-0.2,0.3-0.4,0.5l-1.2,1.4c-0.3,0.3-0.5,0.6-0.7,0.9
			c0,0-0.1,0.1-0.1,0.2l-0.3,0.2c0-0.2,0-0.4,0-0.6c0-0.4,0-0.8,0-1.2c0.1-0.1,0.2-0.1,0.3-0.2c0.3-0.4,0.7-0.8,1-1.2
			c0.4-0.5,0.8-1,1.3-1.5c0.6-0.7,1.2-1.5,1.8-2.2l1.3-1.6c0.4-0.6,0.9-1.1,1.3-1.7c0.3-0.4,0.6-0.8,0.9-1.2c0.5-0.6,1-1.3,1.5-1.9
			c0.2-0.2,0.3-0.4,0.4-0.6c-0.1-0.1-0.2-0.2-0.3-0.4c-0.9-1-1.8-1.9-2.8-2.9c-0.5-0.5-1-1-1.4-1.5c-0.4-0.4-0.8-0.8-1.2-1.3
			c0-0.1,0-0.2,0-0.2C169.9,68.2,170,67.7,170.1,67.3z"/>
		<path class="st10" d="M173.4,79.1l1.3-1.6c0.1,0.4,0.3,0.8,0.4,1.1c-0.2,0.1-0.3,0.3-0.4,0.4c-0.2,0.2-0.4,0.5-0.6,0.7h0l-0.3-0.8
			L173.4,79.1z"/>
		<path class="st10" d="M173.8,90.8C173.8,90.8,173.8,90.8,173.8,90.8c0.6-0.3,1.1-0.6,1.6-0.8c0,0,0.1,0,0.1,0c0,0.4,0,0.8,0,1.2
			c-0.2,0.1-0.3,0.1-0.5,0.2c-0.2,0.1-0.5,0.2-0.7,0.4c0,0-0.1,0-0.1,0c0-0.3,0-0.6,0-0.8L173.8,90.8z"/>
		<path class="st18" d="M158.4,72.8c-0.3-0.2-0.5-0.4-0.7-0.7c0.1-0.3,0.1-0.5,0.2-0.8c0.3-1.1,0.7-2.3,1-3.4
			c0.2-0.8,0.4-1.5,0.7-2.3c0.2-0.8,0.5-1.6,0.7-2.5L161,61c0-0.1,0.1-0.2,0.1-0.3c1.4,0.5,2.7,1,4,1.5c1.3,0.5,2.7,1,4.1,1.6
			c0,0.1,0,0.2,0,0.3c-0.3,0.8-0.5,1.7-0.8,2.5c-0.4,1.4-0.8,2.8-1.3,4.3c-0.3,1-0.6,2-0.9,3c-0.4,1.3-0.8,2.6-1.2,3.9
			c-0.2,0.7-0.4,1.3-0.6,2c-0.1,0.3-0.2,0.7-0.3,1c0,0.1-0.1,0.2-0.2,0.3c0,0-0.1-0.1-0.1-0.2c-0.2-0.3-0.3-0.7-0.5-1
			c0.2-0.1,0.2-0.3,0.2-0.4c0.3-0.9,0.5-1.8,0.8-2.7c0.5-1.7,1-3.3,1.5-5c0.4-1.5,0.9-2.9,1.3-4.4c0.1-0.2,0.1-0.4,0.2-0.6
			c-1.2-0.7-1.6-1.7-1.3-3l-2.4-0.9c0,0.1-0.1,0.1-0.1,0.2c-0.1,0.4-0.4,0.7-0.7,0.9c-0.4,0.4-1,0.5-1.6,0.4c-0.1,0-0.2,0-0.3,0
			c-0.2,0.6-0.3,1.1-0.5,1.6c-0.4,1.2-0.7,2.4-1.1,3.7c-0.2,0.8-0.5,1.6-0.7,2.3C158.6,72.2,158.5,72.5,158.4,72.8z"/>
		<path class="st10" d="M166.1,77.6c0.3-0.9,0.5-1.8,0.8-2.6c0.3-1,0.6-2,0.9-3c0-0.1,0.1-0.2,0.1-0.3l0.7,0.4c0,0.1,0,0.2,0,0.3
			c-0.2,0.7-0.4,1.5-0.7,2.2c-0.2,0.7-0.4,1.3-0.6,2c-0.1,0.5-0.3,1-0.5,1.5c-0.1-0.1-0.2-0.1-0.2-0.2L166.1,77.6z"/>
		<path class="st17" d="M166.1,77.6l0.5,0.3c0.1,0,0.2,0.1,0.2,0.2c0,0,0,0.1,0,0.1c0,0-0.1,0.1-0.1,0.1c-0.1,0.4-0.3,0.8-0.4,1.3
			c-0.3-0.1-0.5-0.2-0.8-0.2L166.1,77.6z"/>
		<path class="st10" d="M165.6,79.4c0.3,0,0.6,0,0.8,0.2v0.1l-0.3,0.9c-0.3-0.2-0.3-0.2-0.6,0c-0.1,0.1-0.2,0.1-0.4,0.2L165.6,79.4z
			"/>
		<path class="st17" d="M165.2,80.7c0.1-0.1,0.2-0.1,0.4-0.2c0.3-0.2,0.3-0.2,0.6,0c0,0.3-0.1,0.6-0.3,0.9c-0.2,0.1-0.3,0.1-0.5,0.1
			c-0.2,0-0.3,0-0.5,0.1L165.2,80.7z"/>
		<path class="st17" d="M165.1,84c0-0.1-0.1-0.1-0.1-0.2c-0.1-0.4-0.3-0.8-0.4-1.2c0-0.1,0.1-0.1,0.1-0.2c0.3,0.1,0.5,0.1,0.8,0.1
			c0,0.1,0,0.2-0.1,0.3c-0.1,0.3-0.2,0.6-0.2,0.9L165.1,84z"/>
		<path class="st10" d="M165.6,82.5c-0.3,0-0.6,0-0.8-0.1l0.2-0.7c0.1-0.1,0.3-0.1,0.5-0.1c0.2,0,0.3-0.1,0.5-0.1L165.6,82.5
			L165.6,82.5z"/>
		<path class="st23" d="M157.1,100.6C157.1,100.5,157.1,100.5,157.1,100.6c0.7-0.4,1.3-0.7,1.9-1.1c0.1,0,0.2,0,0.3,0.1h11.6
			c0.1,0,0.2,0,0.3,0c0.1-1.3,0.7-2.2,2.1-2.4v-2.9c-0.1,0-0.3-0.1-0.4-0.1c-0.4-0.1-0.8-0.3-1.1-0.7c-0.1-0.1-0.2-0.2-0.3-0.4
			c0,0,0,0,0-0.1c0.2-0.1,0.4-0.1,0.6-0.2c0.6-0.3,1.2-0.6,1.8-0.9c0.1,0,0.2-0.1,0.3-0.1c0,0.1,0,0.2,0,0.4v8.4c-0.1,0-0.2,0-0.3,0
			l-16.6-0.1C157.2,100.6,157.2,100.6,157.1,100.6z"/>
		<path class="st17" d="M174.2,91.8c-0.1,0-0.2,0-0.3,0.1c-0.6,0.3-1.2,0.6-1.8,0.9c-0.2,0.1-0.4,0.2-0.6,0.2
			c-0.2-0.3-0.2-0.6-0.3-1c0.3-0.2,0.6-0.3,0.9-0.5c0.4-0.2,0.9-0.4,1.4-0.7c0.1,0,0.1-0.1,0.2-0.1l0.4,0c0,0.3,0,0.6,0,0.8
			C174.2,91.8,174.2,91.8,174.2,91.8z"/>
		<path class="st18" d="M163.8,94.6c0.1-0.1,0.1-0.2,0.2-0.3l0.5-1.1l0.1-0.1l0,0l0.8-0.4c0.5-0.2,1-0.5,1.5-0.7
			c0.5-0.2,0.9-0.5,1.4-0.7c0.3-0.2,0.6-0.3,0.9-0.5c0.4-0.2,0.9-0.5,1.3-0.7c0.5-0.2,1-0.5,1.5-0.7c0.2-0.1,0.4-0.2,0.6-0.3
			l0.9-0.4c0.2-0.1,0.5-0.2,0.7-0.4c-0.4-1.3-0.1-2.4,1.1-3.1c0,0,0-0.1,0-0.1c-0.3-0.8-0.6-1.5-0.9-2.3c-0.1-0.2-0.1-0.2-0.3-0.1
			c-0.4,0.1-0.8,0.1-1.2,0c-0.2-0.1-0.4-0.2-0.6-0.3c0,0,0,0,0-0.1c0,0,0.1,0,0.1-0.1c0.5-0.6,0.9-1.2,1.4-1.8
			c0.2-0.2,0.3-0.4,0.5-0.6c0.1,0.3,0.3,0.7,0.4,1c0.3,0.9,0.7,1.8,1,2.7l1.4,3.5l0.3,0.8c-0.1,0.1-0.1,0.1-0.2,0.1
			c-0.4,0.2-0.8,0.4-1.2,0.6l-1.4,0.7c-0.6,0.3-1.1,0.5-1.7,0.8c-0.6,0.3-1.1,0.6-1.6,0.8l-2.4,1.2c-0.6,0.3-1.2,0.6-1.7,0.9
			c-0.8,0.4-1.6,0.8-2.4,1.2C164.2,94.4,164,94.5,163.8,94.6z"/>
		<path class="st10" d="M171.2,92.1c0,0.3,0.1,0.7,0.3,1c0,0,0,0,0,0.1c-0.1,0-0.1,0.1-0.2,0.1l-1.6,0.8l-1.9,0.9l-1.4,0.7
			c0-0.4,0-0.7-0.1-1.1c0.6-0.3,1.2-0.6,1.8-0.9c0.4-0.2,0.9-0.5,1.3-0.7c0.6-0.3,1.2-0.6,1.8-0.9C171.2,92.1,171.2,92.1,171.2,92.1
			z"/>
		<path class="st17" d="M174.1,79.9c-0.2,0.2-0.3,0.4-0.5,0.6c-0.5,0.6-0.9,1.2-1.4,1.8c0,0-0.1,0.1-0.1,0.1
			c-0.1-0.1-0.2-0.2-0.3-0.3c-0.1-0.1-0.2-0.3-0.4-0.5c0.1-0.2,0.2-0.3,0.3-0.5c0.5-0.7,1.1-1.3,1.6-2l0.4-0.1l0.3,0.8
			C174,79.8,174,79.8,174.1,79.9C174.1,79.8,174.1,79.8,174.1,79.9z"/>
		<path class="st17" d="M166.2,94.6c0.1,0.3,0.1,0.7,0.1,1.1l0,0l-0.5,0.2l-0.7,0.3c0-0.3-0.2-0.7-0.4-0.9L166.2,94.6z"/>
		<path class="st10" d="M164.7,95.4c0.2,0.2,0.4,0.6,0.4,0.9v0.1l-0.4,0.2l-0.4,0.2c0-0.4,0-0.5-0.4-0.6l-0.3-0.1
			c0,0,0.1-0.1,0.1-0.1C164,95.7,164.3,95.6,164.7,95.4z"/>
		<path class="st17" d="M163.5,96l0.3,0.1c0.4,0.1,0.4,0.2,0.4,0.6c-0.1,0.2-0.4,0.3-0.6,0.3c0,0-0.1,0-0.1-0.1
			c-0.2,0-0.4-0.1-0.5-0.3c0-0.2-0.2-0.2-0.4-0.2C162.9,96.2,163.2,96.1,163.5,96z"/>
		<path class="st10" d="M162.7,96.4c0.2,0,0.3,0.1,0.4,0.2c0.1,0.2,0.3,0.3,0.5,0.3c0,0,0.1,0,0.1,0.1c0,0-0.1,0.1-0.1,0.1
			c-0.3,0.1-0.5,0.3-0.8,0.4h-0.1c-0.2-0.2-0.4-0.4-0.5-0.7c0-0.2,0.1-0.3,0.3-0.4L162.7,96.4z"/>
		<path class="st18" d="M174.1,79.8C174.1,79.8,174.1,79.8,174.1,79.8L174.1,79.8L174.1,79.8z"/>
		<path class="st18" d="M168.7,72c0.3-1.1,0.6-2.1,0.9-3.2h0c0.4,0.4,0.8,0.8,1.2,1.3c0.5,0.5,1,1,1.4,1.5c0.9,1,1.8,1.9,2.8,2.9
			c0.1,0.1,0.2,0.2,0.3,0.4c-0.2,0.2-0.3,0.4-0.4,0.6c-0.5,0.6-1,1.3-1.5,1.9c-0.3,0.4-0.6,0.8-0.9,1.2c-0.4,0.6-0.9,1.1-1.3,1.7
			l-1.3,1.6c-0.6,0.7-1.2,1.5-1.8,2.2c-0.4,0.5-0.8,1-1.3,1.5c-0.3,0.4-0.7,0.8-1,1.2c-0.1,0.1-0.2,0.2-0.3,0.2l-0.1-1.3l1.5-1.9
			c0.4-0.5,0.8-1,1.2-1.5c0.7-0.9,1.4-1.8,2.2-2.6c0.7-0.9,1.4-1.8,2.2-2.7c0.3-0.3,0.3-0.3,0-0.7c-0.3-0.4-0.4-0.9-0.4-1.5
			c0-0.5,0.1-1,0.4-1.4c0.1-0.2,0.1-0.2,0-0.4c-0.5-0.5-1-1.1-1.5-1.6c-0.1-0.1-0.1-0.1-0.2-0.2c-0.3,0.2-0.6,0.4-1,0.6
			C169.4,72.1,169,72.2,168.7,72z"/>
		<path class="st10" d="M171.4,81.5c0.1,0.2,0.2,0.3,0.4,0.5c0.1,0.1,0.2,0.2,0.3,0.3c0,0,0,0,0,0.1l-0.9,1.1
			c-0.4,0.5-0.8,1-1.2,1.5c-0.3,0.4-0.7,0.8-1,1.3c-0.2,0.3-0.5,0.5-0.7,0.8c0,0-0.1-0.1-0.1-0.1c-0.1-0.2-0.3-0.5-0.4-0.7
			c0.1-0.2,0.2-0.3,0.4-0.5c0.7-0.9,1.4-1.7,2.1-2.6c0.3-0.4,0.7-0.8,1-1.2C171.3,81.7,171.4,81.6,171.4,81.5z"/>
		<path class="st17" d="M167.8,86.1c0.1,0.2,0.3,0.5,0.4,0.7c0,0,0.1,0.1,0.1,0.1v0.2c-0.1,0.1-0.2,0.2-0.3,0.2
			c-0.2,0.3-0.4,0.5-0.6,0.8c0-0.1-0.1-0.1-0.1-0.2c-0.1-0.2-0.4-0.4-0.6-0.4L167.8,86.1z"/>
		<path class="st10" d="M166.6,87.5c0.3,0.1,0.5,0.2,0.6,0.4c0,0.1,0.1,0.1,0.1,0.2v0.1l-0.2,0.2l-0.5,0.5c-0.1-0.3-0.2-0.4-0.5-0.4
			c-0.1,0-0.3,0-0.4,0c0-0.1,0-0.1,0.1-0.2C166.1,88.1,166.4,87.8,166.6,87.5z"/>
		<path class="st17" d="M165.8,88.6c0.1,0,0.3,0,0.4,0c0.3,0,0.4,0.1,0.5,0.4c-0.1,0.2-0.2,0.4-0.4,0.5c-0.1,0-0.1,0-0.2,0.1
			c-0.2,0-0.4,0.1-0.6-0.2c0-0.2,0-0.4,0-0.6L165.8,88.6z"/>
		<path class="st24" d="M158.4,72.8c0.1-0.3,0.2-0.6,0.3-0.9c0.2-0.8,0.5-1.6,0.7-2.3c0.4-1.2,0.7-2.4,1.1-3.7
			c0.2-0.5,0.3-1.1,0.5-1.6c0.1,0,0.2,0,0.3,0c0.6,0.1,1.1,0,1.6-0.4c0.3-0.2,0.5-0.6,0.7-0.9c0-0.1,0.1-0.1,0.1-0.2l2.4,0.9
			c-0.3,1.3,0.1,2.4,1.3,3c-0.1,0.2-0.1,0.4-0.2,0.6c-0.4,1.5-0.9,2.9-1.3,4.4c-0.5,1.7-1,3.3-1.5,5c-0.3,0.9-0.5,1.8-0.8,2.7
			c0,0.1,0,0.3-0.2,0.4c-0.5-1-1.1-2-1.8-2.9c0,0-0.1-0.1-0.1-0.2c0.3,0,0.7,0,1-0.1c0.9-0.2,1.6-0.8,1.9-1.6c0.3-0.6,0.3-1.3,0.2-2
			c-0.2-0.9-0.7-1.7-1.6-2.2c-0.6-0.4-1.3-0.5-1.9-0.3c-1,0.2-1.9,0.9-2.2,2c-0.1,0.2-0.1,0.5-0.2,0.7L158.4,72.8z M163.6,66.1
			c-0.5-0.1-1,0.5-1,1c0,0.6,0.5,1.1,1.1,1.1c0.5,0,1-0.4,1-0.9c0,0,0-0.1,0-0.1C164.7,66.6,164.3,66.1,163.6,66.1
			C163.7,66.1,163.6,66.1,163.6,66.1L163.6,66.1z"/>
		<path class="st25" d="M166.3,95.8L166.3,95.8l1.5-0.8l1.9-0.9l1.6-0.8c0.1,0,0.1-0.1,0.2-0.1c0.1,0.1,0.2,0.3,0.3,0.4
			c0.3,0.3,0.7,0.6,1.1,0.7c0.1,0,0.2,0.1,0.4,0.1v2.9c-1.4,0.2-2,1.1-2.1,2.4c-0.1,0-0.2,0-0.3,0h-11.6c-0.1,0-0.2,0-0.3-0.1l1-0.7
			c0.1,0,0.1-0.1,0.2-0.1c0.1-0.1,0.3-0.1,0.4-0.2c0.3-0.2,0.7-0.3,1-0.5c0,0,0.1,0,0.1,0.1c0.4,0.5,1,0.8,1.6,0.9
			c0.7,0.1,1.3-0.1,1.8-0.5C165.9,97.8,166.4,96.8,166.3,95.8z M168.6,95.7c0,0.3,0.1,0.7,0.4,0.9c0.3,0.3,0.8,0.4,1.2,0
			c0.1-0.1,0.1-0.1,0.1-0.2c0.3-0.4,0.3-1,0.1-1.5c-0.1-0.3-0.5-0.5-0.8-0.5c-0.4,0-0.7,0.2-0.8,0.6
			C168.7,95.3,168.7,95.5,168.6,95.7z"/>
		<path class="st24" d="M168.7,72c0.4,0.1,0.7,0.1,1.1-0.1c0.3-0.2,0.7-0.4,1-0.6c0,0,0.1,0.1,0.2,0.2c0.5,0.5,1,1.1,1.5,1.6
			c0.2,0.2,0.2,0.2,0,0.4c-0.3,0.4-0.4,0.9-0.4,1.4c0,0.5,0.1,1,0.4,1.5c0.2,0.3,0.2,0.3,0,0.7c-0.7,0.9-1.4,1.8-2.2,2.7
			c-0.7,0.9-1.4,1.8-2.2,2.6c-0.4,0.5-0.8,1-1.2,1.5l-1.5,1.9c-0.1-0.4-0.2-0.8-0.2-1.2c0-0.2-0.1-0.4-0.1-0.6l0.2-0.3
			c0.9,0,1.7-0.4,2.2-1.1c0.9-1.4,0.7-3.3-0.5-4.4c0,0,0-0.1,0-0.1c0.2-0.5,0.3-1,0.5-1.5c0.2-0.7,0.4-1.3,0.6-2
			c0.2-0.7,0.4-1.5,0.7-2.2C168.6,72.2,168.7,72.1,168.7,72L168.7,72z M170.1,75.6c0-0.3-0.1-0.7-0.3-1c-0.5-0.5-1.2-0.5-1.6,0.2
			c-0.2,0.6,0,1.2,0.5,1.5c0.2,0.2,0.6,0.2,0.9,0.1C169.9,76.4,170.1,76,170.1,75.6L170.1,75.6z"/>
		<path class="st24" d="M168.3,87.1v-0.2c0.2-0.3,0.5-0.5,0.7-0.8c0.3-0.4,0.7-0.8,1-1.3c0.4-0.5,0.8-1,1.2-1.5l0.9-1.1
			c0.2,0.1,0.4,0.2,0.6,0.3c0.4,0.1,0.8,0.1,1.2,0c0.2-0.1,0.3-0.1,0.3,0.1c0.3,0.8,0.6,1.5,0.9,2.3c0,0,0,0.1,0,0.1
			c-1.1,0.8-1.4,1.8-1.1,3.1c-0.2,0.1-0.4,0.3-0.7,0.4l-0.9,0.4c-0.2,0.1-0.4,0.2-0.6,0.3c-0.5,0.2-1,0.5-1.5,0.7
			c-0.5,0.2-0.9,0.5-1.3,0.7c-0.3,0.2-0.6,0.3-0.9,0.5c-0.5,0.2-0.9,0.5-1.4,0.7c-0.5,0.2-1,0.5-1.5,0.7l-0.8,0.4
			c0-0.1,0.1-0.2,0.1-0.4c0.1-0.4,0.3-0.8,0.4-1.2c0,0,0.1,0,0.1,0c0.7,0.2,1.4,0.1,2-0.2c0.3-0.2,0.6-0.5,0.8-0.8
			c0.5-0.7,0.7-1.5,0.6-2.3C168.5,87.8,168.4,87.4,168.3,87.1z M172.2,85.6c0-0.3-0.1-0.6-0.3-0.9c-0.3-0.4-0.8-0.5-1.2-0.2
			c-0.1,0.1-0.2,0.2-0.3,0.4c-0.2,0.5-0.2,1,0.2,1.4c0.3,0.4,0.8,0.5,1.2,0.2c0.1-0.1,0.1-0.1,0.2-0.2
			C172.1,86.1,172.2,85.9,172.2,85.6z"/>
		<path class="st18" d="M158.8,73.2c0.1-0.2,0.1-0.5,0.2-0.7c0.3-1,1.1-1.8,2.2-2c0.7-0.1,1.3,0,1.9,0.3c0.8,0.5,1.4,1.3,1.6,2.2
			c0.2,0.7,0.1,1.4-0.2,2c-0.3,0.8-1.1,1.4-1.9,1.6c-0.3,0-0.7,0.1-1,0.1c-0.3-0.5-0.7-0.9-1-1.4c-0.4-0.5-0.7-0.9-1-1.3L158.8,73.2
			z M163.5,74c0-0.1,0-0.1,0-0.2c0.1-0.4,0-0.8-0.2-1.2c-0.3-0.5-0.9-0.6-1.4-0.3c-0.1,0.1-0.2,0.2-0.3,0.3
			c-0.1,0.2-0.2,0.4-0.4,0.6c-0.1,0.1-0.2,0.3-0.3,0.4c-0.1,0.1-0.3,0.1-0.4,0c0,0-0.1-0.1-0.1-0.1c-0.1-0.3,0-0.9,0.5-1
			c0.1,0,0.2-0.1,0.2-0.1c0-0.2,0-0.5,0-0.7c-0.3,0-0.6,0.1-0.8,0.4c-0.1,0.1-0.2,0.3-0.3,0.5l-0.4-0.1c0,0.1-0.1,0.2-0.1,0.2
			c0,0.1,0,0.2,0.1,0.3c0.2,0,0.2,0.2,0.2,0.4c0,0.3,0.1,0.6,0.2,0.8c0.2,0.5,0.8,0.7,1.3,0.4c0,0,0.1,0,0.1-0.1
			c0.2-0.1,0.3-0.3,0.4-0.5c0.2-0.3,0.3-0.5,0.5-0.8c0.1-0.1,0.2-0.2,0.4-0.1c0,0,0.1,0,0.1,0.1c0.1,0.1,0.1,0.3,0.1,0.4
			c-0.1,0.4-0.3,0.8-0.8,0.9l0,0.8c0.7,0.1,1-0.4,1.3-0.9l0.5,0.1l0.1-0.4L163.5,74z"/>
		<path class="st18" d="M168.3,87.1c0.2,0.3,0.2,0.7,0.2,1c0.1,0.8-0.1,1.7-0.6,2.3c-0.2,0.3-0.5,0.6-0.8,0.8
			c-0.6,0.4-1.3,0.5-2,0.2c0,0-0.1,0-0.1,0c0.1-0.3,0.1-0.5,0.2-0.8c0.2-0.1,0.3-0.2,0.3-0.4h0.1l0.6-0.1l0.2,0.5l0.4-0.2
			c0-0.1-0.1-0.2-0.1-0.4c-0.1-0.1,0-0.2,0.1-0.3c0,0,0,0,0,0c0.1-0.1,0.2-0.1,0.3-0.2c0.4-0.4,0.4-0.9,0.2-1.4v-0.1
			c0.2-0.3,0.4-0.5,0.6-0.8C168.1,87.3,168.2,87.2,168.3,87.1z"/>
		<path class="st17" d="M162.2,96.8c0.1,0.3,0.2,0.5,0.5,0.7c-0.3,0.2-0.6,0.4-1,0.5c0,0-0.1,0-0.1,0l-0.2-0.4
			c0.2-0.2,0.4-0.5,0.6-0.7C162.1,96.9,162.1,96.9,162.2,96.8z"/>
		<path class="st10" d="M165.7,90.3h-0.1l-0.2-0.1c0.1-0.3,0.1-0.6,0.2-0.9c0.2,0.2,0.4,0.2,0.6,0.2c0.1,0,0.1,0,0.2-0.1
			c-0.1,0.2-0.3,0.3-0.4,0.5C165.8,90.1,165.8,90.2,165.7,90.3z"/>
		<path class="st10" d="M161.4,97.7l0.2,0.4c0,0,0,0,0,0.1c-0.3,0.2-0.7,0.3-1,0.5c-0.1,0.1-0.3,0.1-0.4,0.2
			c0.2-0.2,0.3-0.3,0.5-0.5c0.2-0.2,0.3-0.3,0.5-0.5C161.3,97.7,161.3,97.7,161.4,97.7z"/>
		<path class="st17" d="M165.3,90.3l0.2,0.1c0,0.2-0.2,0.3-0.3,0.4L165.3,90.3z"/>
		<path class="st24" d="M164.5,93.1L164.5,93.1L164.5,93.1z"/>
		<path class="st18" d="M166.9,78.2c1.2,1.2,1.4,3,0.5,4.4c-0.5,0.7-1.3,1.1-2.2,1.1c0.1-0.3,0.2-0.6,0.2-0.9c0-0.1,0-0.2,0.1-0.3
			l0.1-0.1c0.3,0,0.4-0.2,0.7-0.3l0.4,0.3l0.3-0.3l-0.4-0.4c0.1-0.2,0.2-0.4,0.3-0.7c0.1-0.4,0-1.2-0.4-1.4v-0.1
			c0.1-0.4,0.3-0.8,0.4-1.3C166.9,78.3,166.9,78.2,166.9,78.2z"/>
		<path class="st19" d="M166.4,79.6c0.4,0.2,0.6,1,0.4,1.4c-0.1,0.2-0.2,0.4-0.3,0.7l0.4,0.4l-0.3,0.3l-0.4-0.3
			c-0.2,0.1-0.4,0.4-0.7,0.3l0.2-0.9c0.2-0.2,0.3-0.6,0.3-0.9L166.4,79.6z"/>
		<path class="st18" d="M161.6,98.1C161.6,98.1,161.6,98,161.6,98.1C161.7,98,161.7,98,161.6,98.1c0.4-0.2,0.7-0.4,1.1-0.6h0.1
			l0.6,0.3l0,0.5h0.4l0-0.5c1-0.3,1.2-0.8,1.2-1.4v-0.1l0.7-0.3l0.5-0.2c0.1,1.1-0.4,2.1-1.2,2.8c-0.5,0.5-1.2,0.7-1.8,0.5
			c-0.6-0.1-1.2-0.4-1.6-0.9C161.7,98.1,161.7,98.1,161.6,98.1z"/>
		<path class="st19" d="M165.1,96.4c0,0.6-0.2,1.1-1.2,1.4l0,0.5h-0.4l0-0.5l-0.6-0.3c0.3-0.1,0.5-0.2,0.8-0.4c0,0,0.1-0.1,0.1-0.1
			c0.2,0,0.4-0.1,0.6-0.3l0.4-0.2L165.1,96.4z"/>
		<path class="st19" d="M165.7,90.3c0.1-0.1,0.2-0.3,0.3-0.4c0.1-0.1,0.2-0.3,0.4-0.5s0.3-0.3,0.4-0.5l0.5-0.5l0.2-0.2
			c0.1,0.5,0.1,1-0.2,1.4c-0.1,0.1-0.2,0.2-0.3,0.2c-0.1,0.1-0.1,0.2-0.1,0.3c0,0,0,0,0,0c0.1,0.1,0.1,0.2,0.1,0.4l-0.4,0.2
			l-0.2-0.5L165.7,90.3z"/>
		<path class="st18" d="M168.6,95.7c0-0.2,0.1-0.4,0.2-0.6c0.1-0.3,0.4-0.6,0.8-0.6c0.3,0,0.7,0.2,0.8,0.5c0.3,0.5,0.2,1-0.1,1.5
			c-0.2,0.4-0.8,0.5-1.2,0.3c-0.1,0-0.1-0.1-0.2-0.1C168.8,96.4,168.6,96,168.6,95.7z"/>
		<path class="st18" d="M170.2,75.6c0,0.4-0.2,0.7-0.6,0.9c-0.3,0.1-0.6,0.1-0.9-0.1c-0.5-0.3-0.7-1-0.5-1.5
			c0.4-0.7,1.1-0.7,1.6-0.2C170.1,74.9,170.2,75.3,170.2,75.6z"/>
		<path class="st18" d="M172.2,85.6c0,0.3-0.1,0.5-0.2,0.8c-0.3,0.4-0.8,0.5-1.2,0.2c-0.1-0.1-0.1-0.1-0.2-0.2
			c-0.3-0.4-0.4-1-0.2-1.4c0.2-0.5,0.7-0.6,1.2-0.4c0.1,0.1,0.3,0.2,0.4,0.3C172.1,85,172.2,85.3,172.2,85.6z"/>
		<g>
			<path class="st15" d="M165.6,87c0,0.4,0,0.8,0,1.2c0,0.2,0,0.4,0,0.6c0,0.2,0,0.4,0,0.6c-0.1,0.3-0.1,0.6-0.2,0.9l-0.1,0.4
				l-0.2,0.8c-0.1,0.4-0.3,0.8-0.4,1.2c0,0.1-0.1,0.2-0.1,0.4l0,0l-0.1,0.1l-0.5,1.1c-0.1,0.1-0.1,0.2-0.2,0.3
				c-0.1,0.2-0.3,0.4-0.4,0.6c-0.3,0.4-0.6,0.8-0.8,1.2c-0.1,0.1-0.3,0.2-0.3,0.4c-0.1,0-0.2,0.1-0.2,0.2c-0.2,0.2-0.4,0.4-0.6,0.7
				c-0.1,0-0.1,0.1-0.2,0.1c-0.2,0.2-0.3,0.3-0.5,0.5c-0.2,0.2-0.3,0.3-0.5,0.5c-0.1,0-0.1,0.1-0.2,0.1l-1,0.7
				c-0.6,0.4-1.2,0.7-1.9,1c0,0,0,0.1-0.1,0.1c-0.2,0.1-0.4,0.1-0.6,0.2c-0.6,0.2-1.2,0.4-1.8,0.5c-0.6,0.1-1.1,0.2-1.7,0.3
				c-0.1,0-0.1,0-0.2,0.1l-1.4,0.1c0-0.1,0.1-0.2,0.2-0.2c0.5-0.4,0.9-0.8,1.2-1.3c0.3-0.3,0.6-0.7,0.8-1c0.5-0.6,1.1-1.3,1.6-1.9
				c0.4-0.5,0.8-1,1.2-1.6c0.4-0.5,0.7-1.2,1-1.7c0.6-1,1-2.1,1.4-3.2c0.4-1,0.6-2,0.7-3c0.1-0.6,0.1-1.2,0.2-1.7c0-0.5,0-1,0-1.6
				c0-0.5,0-0.9-0.1-1.4c-0.1-0.8-0.2-1.5-0.4-2.3c-0.1-0.5-0.2-0.9-0.3-1.3c-0.4-1.3-0.9-2.5-1.5-3.7c-0.5-1-1.1-1.9-1.7-2.8
				c-0.5-0.6-0.9-1.2-1.4-1.9c0,0-0.1-0.1-0.2-0.1l-0.2-0.7c0.1,0.1,0.2,0.1,0.3,0.1l1.7,1.1l0.2,0.2c0.3,0.2,0.7,0.2,1-0.1
				c0,0,0,0,0.1,0l0.5,0.5c0.2,0.3,0.4,0.5,0.7,0.7l0.4,0.5l0.7,0.8c0.3,0.4,0.7,0.8,1,1.3s0.7,0.9,1,1.4c0,0.1,0.1,0.1,0.1,0.2
				c0.6,0.9,1.2,1.9,1.8,2.9c0.2,0.3,0.3,0.7,0.5,1c0,0.1,0.1,0.1,0.1,0.2c0,0.1,0,0.2,0.1,0.3c0.2,0.4,0.3,0.9,0.5,1.3
				c0.1,0.4,0.3,0.8,0.4,1.2c0,0.1,0.1,0.1,0.1,0.2c0,0.2,0.1,0.4,0.1,0.6c0.1,0.4,0.1,0.8,0.2,1.2L165.6,87z"/>
			<rect x="98.9" y="45.9" class="st26" width="122.6" height="49.2"/>
			<text transform="matrix(0.8916 0 0 1 98.9326 54.0389)" class="st27 st28">The Monthly Expense Tracker</text>
		</g>
	</g>
</g>
</svg>
