<svg id="Layer_1" data-name="Layer 1" xmlns="http://www.w3.org/2000/svg" viewBox="0 0 122.59 58.97"><defs><style>.cls-1{fill:#f8e1a1;}.cls-2{fill:#333738;}.cls-3{fill:#ffca11;}.cls-4{fill:#ffc910;}.cls-5{fill:#494f4f;}.cls-6{fill:#484e4e;}.cls-7{fill:#e47605;}.cls-8{fill:#e47204;}.cls-9{fill:#e57403;}.cls-10{fill:#fde696;}.cls-11{fill:#528e49;}.cls-12{fill:#cbcbcb;}.cls-13{fill:#fda204;}.cls-14{fill:#fea102;}.cls-15{fill:#373734;}.cls-16{fill:#323637;}.cls-17{fill:#e47108;}.cls-18{fill:#256d24;}.cls-19{fill:#349a34;}.cls-20{fill:#73ca67;}.cls-21{fill:#cccccb;}.cls-22{fill:#75ca69;}.cls-23{fill:#75ca68;}.cls-24{fill:#393;}.cls-25{fill:#74ca68;}.cls-26{fill:#74ca67;}.cls-27{font-size:11.39px;font-family:HelveticaNeue-CondensedBold, Helvetica Neue;font-weight:700;}.cls-28{letter-spacing:-0.04em;}.cls-29{letter-spacing:-0.07em;}</style></defs><path class="cls-1" d="M147.48,69.17l-.8,0H145.5a1.07,1.07,0,0,1-.39-.5.85.85,0,0,1,.25-1l.11-.13a1,1,0,0,1-.4-.85.88.88,0,0,1,.54-.78s-.05-.09-.08-.11a.89.89,0,0,1-.06-1.33.67.67,0,0,1,.44-.18h.35l.58.06.19,0h0l1.46.16,1.05.1.6.07,1,.11,2.85.29c.22,0,.44,0,.66.08a.77.77,0,0,1,.6.88,1.93,1.93,0,0,1-.2.52.23.23,0,0,0,0,.24.86.86,0,0,1,0,.85.22.22,0,0,0,0,.16,1,1,0,0,1-.08,1.06.43.43,0,0,0,0,.11l.26.17c.59.39,1.18.78,1.78,1.16l.11,0a1.17,1.17,0,0,1,.06,1.12l-.07,0a.7.7,0,0,1-1,.11l-.24-.17-1.7-1.07c-.06,0-.13-.06-.25-.12l.24.67c.15.45.29.89.44,1.35a.84.84,0,0,1,0,.66.69.69,0,0,1-1.33,0c-.15-.4-.29-.8-.41-1.2L152,69.26a.41.41,0,0,0,0-.09l-.12,0h-3.2l-.15,0Z" transform="translate(-98.93 -44.28)"/><path class="cls-2" d="M154.05,65.13l-2.84-.3a1.36,1.36,0,0,1-.06-.29c0-.22,0-.43.06-.65,0-.41.06-.82.14-1.23a17.91,17.91,0,0,1,.72-2.7c0-.1.05-.21.07-.31l.42-.39a3.84,3.84,0,0,1,1.33-.89,2,2,0,0,1,2,.56,1.13,1.13,0,0,1,0,1.33,7.84,7.84,0,0,0-1.67,3.51C154.14,64.22,154.11,64.68,154.05,65.13Z" transform="translate(-98.93 -44.28)"/><path class="cls-3" d="M130.59,87.09l.9,0h7.76a2,2,0,0,1,.11.2.68.68,0,0,1,.12.26,3.51,3.51,0,0,1-.17,1.67H130.6a.79.79,0,0,1-.26-.66,4.09,4.09,0,0,0,0-.7A.89.89,0,0,1,130.59,87.09Z" transform="translate(-98.93 -44.28)"/><path class="cls-4" d="M129.77,92l.38,0h8.4a1.87,1.87,0,0,1,.13.81,4.17,4.17,0,0,0,0,.5,1.15,1.15,0,0,1-.19.81h-8.68a.83.83,0,0,1-.24-.69c0-.25,0-.49,0-.74A.87.87,0,0,1,129.77,92Z" transform="translate(-98.93 -44.28)"/><path class="cls-3" d="M137.15,79.66l.12,0a.56.56,0,0,1,.23.43,3.32,3.32,0,0,1-.18,1.68h-8.69a.58.58,0,0,1-.25-.53v-1a.72.72,0,0,1,.22-.59l.43,0h7.73Z" transform="translate(-98.93 -44.28)"/><path class="cls-3" d="M130.92,96.94l.4-.09a1.58,1.58,0,0,0,.42.09c1.18,0,2.36,0,3.54,0h3.87a2.3,2.3,0,0,1,.45,0,1.14,1.14,0,0,1,.18.76,2.8,2.8,0,0,0,0,.41,1.37,1.37,0,0,1-.18.91h-8.26c-.15,0-.29,0-.43,0a.79.79,0,0,1-.24-.67,6.17,6.17,0,0,0,0-.86A.71.71,0,0,1,130.92,96.94Z" transform="translate(-98.93 -44.28)"/><path class="cls-5" d="M148.52,64.55l-1.46-.15a0,0,0,0,0,0,0l-.19,0a.54.54,0,0,0,0-.18,7.91,7.91,0,0,0-.65-1.82,4,4,0,0,0-.85-1.19l-.26-.14c-.2-.27-.41-.53-.6-.81a1.08,1.08,0,0,1,.16-1.4,1.77,1.77,0,0,1,1.69-.48,3.48,3.48,0,0,1,.69.29,5.74,5.74,0,0,1,.5.36c-.13.07,0,.16,0,.26.21.74.42,1.49.61,2.24.11.43.17.87.26,1.3A14.64,14.64,0,0,1,148.52,64.55Z" transform="translate(-98.93 -44.28)"/><path class="cls-6" d="M152.14,59.66c0,.1,0,.21-.07.31a18.23,18.23,0,0,0-.72,2.7c-.08.41-.1.82-.14,1.23,0,.22-.05.43-.06.65a1.59,1.59,0,0,0,.06.3l-1-.11-.61-.08a2.8,2.8,0,0,0,0-.41c-.1-.62-.22-1.24-.32-1.86-.07-.42-.14-.84-.2-1.26s-.06-.72-.13-1.08a2.8,2.8,0,0,1,0-1,2.14,2.14,0,0,1,1.68-.35,2.49,2.49,0,0,1,1.4.78Z" transform="translate(-98.93 -44.28)"/><path class="cls-2" d="M148.93,59a2.8,2.8,0,0,0,0,1c.07.35.08.72.13,1.08s.13.84.19,1.26l.33,1.86a2.8,2.8,0,0,1,0,.41l-1.05-.1a14.63,14.63,0,0,0-.19-1.75c-.08-.44-.15-.89-.25-1.3-.19-.76-.41-1.5-.61-2.25,0-.09-.1-.19,0-.26l.69.64Z" transform="translate(-98.93 -44.28)"/><path class="cls-7" d="M130.91,99.08c.14,0,.28,0,.43,0h9.6a.69.69,0,0,0,.64-.25.48.48,0,0,1-.18.49s0,.07,0,.1-.08,0-.12,0H129.67c-.29,0-.45-.23-.44-.59a.61.61,0,0,0,.58.29Z" transform="translate(-98.93 -44.28)"/><path class="cls-8" d="M138.55,92h-8.4c-.11-.17-.29-.32-.25-.56l.11.08a.67.67,0,0,0,.5.19c.37,0,.74,0,1.1,0h8c.24,0,.48,0,.72-.06h1.48c.33,0,.45-.12.45-.46V89.87l.06.07c0,.48,0,1,0,1.45s-.19.61-.61.62h-1.14a.86.86,0,0,0-.27,0L140,92C139.53,92,139,92,138.55,92Z" transform="translate(-98.93 -44.28)"/><path class="cls-9" d="M130.59,89.21h10.14c.39,0,.5-.12.5-.52s0-.85,0-1.28a1.57,1.57,0,0,1,.05.3v.92a1.16,1.16,0,0,1-.26.91h.78c-.27,0-.53,0-.8,0s-.52,0-.78,0h-8.68l-1.5,0h-.58c-.42,0-.52-.1-.58-.55a.5.5,0,0,1,.12.08.41.41,0,0,0,.36.16Z" transform="translate(-98.93 -44.28)"/><path class="cls-9" d="M139.6,97a2.3,2.3,0,0,0-.45,0h-3.87c-1.18,0-2.36,0-3.54,0a1.58,1.58,0,0,1-.42-.09.5.5,0,0,1-.22-.49.89.89,0,0,0,.81.29c.27,0,.54,0,.81,0,.47,0,.93,0,1.39,0h8.64a.8.8,0,0,0,.71-.25c0,.39-.15.54-.52.55H141.6a1.35,1.35,0,0,0-.29,0h-.38c-.36,0-.71,0-1.06,0A.84.84,0,0,0,139.6,97Z" transform="translate(-98.93 -44.28)"/><path class="cls-9" d="M131.56,84.62h-2c-.41,0-.51-.1-.59-.52,0,0,.09,0,.11,0a.6.6,0,0,0,.55.19h9c.24,0,.49,0,.73,0h1.17a1,1,0,0,0,.79-.18h0a.4.4,0,0,1-.09.35.52.52,0,0,0,0,.18Z" transform="translate(-98.93 -44.28)"/><path class="cls-8" d="M139.24,87.06h-7.61l-.11-.07a.58.58,0,0,1-.19-.39l.18.06a1.36,1.36,0,0,0,.36.1H141c.24,0,.48,0,.72-.06h1.42a.55.55,0,0,0,.52-.24.47.47,0,0,1-.44.59H143l-2,0Z" transform="translate(-98.93 -44.28)"/><path class="cls-9" d="M129.81,94.14h8.68c.43,0,.87,0,1.3,0a.83.83,0,0,0,.69-.24c.05.23-.11.37-.23.53H128.69c-.42,0-.56-.16-.58-.6a.68.68,0,0,0,.68.3C129.13,94.13,129.47,94.14,129.81,94.14Z" transform="translate(-98.93 -44.28)"/><path class="cls-9" d="M128.64,81.82h10a.75.75,0,0,0,.65-.25c.06.24-.1.38-.23.54H131a2.06,2.06,0,0,0-.35,0h-3.09c-.42,0-.55-.13-.58-.56a.58.58,0,0,0,.46.25Z" transform="translate(-98.93 -44.28)"/><path class="cls-10" d="M129.16,82.15h1.44a1.4,1.4,0,0,0-.22,1v.12a1.39,1.39,0,0,0,.23,1h-1a.61.61,0,0,1-.55-.2s-.07,0-.11,0V82.64a.82.82,0,0,1,.12-.32A.62.62,0,0,1,129.16,82.15Z" transform="translate(-98.93 -44.28)"/><path class="cls-10" d="M130.91,99.08h-1.1a.63.63,0,0,1-.58-.29V97.41a.48.48,0,0,1,.4-.51h.06c.38,0,.77,0,1.15,0,0,0,0,0,.08,0a.69.69,0,0,0-.25.59,6.17,6.17,0,0,1,0,.86A.78.78,0,0,0,130.91,99.08Z" transform="translate(-98.93 -44.28)"/><path class="cls-10" d="M131.27,94.45h1.51a.92.92,0,0,0-.24.73,5.8,5.8,0,0,1,0,.59,1.09,1.09,0,0,0,.18.78v.08h-.81a.85.85,0,0,1-.81-.29c0-.47,0-1,0-1.42A1.66,1.66,0,0,1,131.27,94.45Z" transform="translate(-98.93 -44.28)"/><path class="cls-10" d="M128.64,81.82H127.4a.58.58,0,0,1-.45-.25.39.39,0,0,1,0-.14c0-.43,0-.87,0-1.3a.42.42,0,0,1,.38-.45h0c.43,0,.85,0,1.28,0a.72.72,0,0,0-.22.59v1A.58.58,0,0,0,128.64,81.82Z" transform="translate(-98.93 -44.28)"/><path class="cls-10" d="M133.06,86.75h-1.19a1.4,1.4,0,0,1-.35-.1l-.18-.06V85.07c0-.2.13-.31.23-.46H133a.79.79,0,0,0-.24.67c0,.26,0,.53,0,.79A.71.71,0,0,0,133.06,86.75Z" transform="translate(-98.93 -44.28)"/><path class="cls-10" d="M131.26,99.4h1.52a.86.86,0,0,0-.23.67v.85a.68.68,0,0,0,.27.61c-.35,0-.7,0-1,0a.68.68,0,0,1-.68-.3V99.93Z" transform="translate(-98.93 -44.28)"/><path class="cls-10" d="M130.06,89.54h1.49s0,.08,0,.1a.73.73,0,0,0-.18.57c0,.22,0,.45,0,.68a1,1,0,0,0,.29.82h-1.1a.66.66,0,0,1-.5-.19l-.11-.08c0-.15,0-.3,0-.43v-.59A1.72,1.72,0,0,1,130.06,89.54Z" transform="translate(-98.93 -44.28)"/><path class="cls-10" d="M130.59,89.21h-1.22a.41.41,0,0,1-.36-.16L128.9,89c0-.46,0-.93,0-1.39a.52.52,0,0,1,.48-.54h.1l1.12,0a.9.9,0,0,0-.25.75c0,.24,0,.47,0,.71A.79.79,0,0,0,130.59,89.21Z" transform="translate(-98.93 -44.28)"/><path class="cls-10" d="M129.81,94.14h-1a.66.66,0,0,1-.67-.29V92.49a.44.44,0,0,1,.37-.49h0c.42,0,.83,0,1.25,0a.9.9,0,0,0-.21.68,4.57,4.57,0,0,1,0,.74A.85.85,0,0,0,129.81,94.14Z" transform="translate(-98.93 -44.28)"/><path class="cls-11" d="M170.12,67.32c-.14.43-.27.86-.4,1.28a2.23,2.23,0,0,0,0,.23h0l-.51-.55-.29.26c.06-.22.11-.45.18-.68s.22-.73.34-1.1a.76.76,0,0,1,.09-.18Z" transform="translate(-98.93 -44.28)"/><path class="cls-2" d="M145.05,61a1.71,1.71,0,0,1,.27.14,4,4,0,0,1,.85,1.19,9,9,0,0,1,.65,1.82.54.54,0,0,1,0,.18l-.58-.07a7.46,7.46,0,0,0-.94-2.83A3.7,3.7,0,0,0,145.05,61Z" transform="translate(-98.93 -44.28)"/><path class="cls-10" d="M131.52,87l.11.08h-.14Z" transform="translate(-98.93 -44.28)"/><path class="cls-12" d="M149.47,79.15V78.09a7.23,7.23,0,0,1,1.8,0v1.12a3,3,0,0,1,2.55,3h-2.13c0-.1-.05-.2-.08-.3a1.23,1.23,0,0,0-1.41-1,1,1,0,0,0-1,.72,1.17,1.17,0,0,0,.32,1.38,3.54,3.54,0,0,0,.71.45c.29.14.58.24.87.35a6.37,6.37,0,0,1,2,1.1,2.93,2.93,0,0,1,.94,1.67,4.35,4.35,0,0,1-.15,2.26,2.71,2.71,0,0,1-1.49,1.62c-.31.14-.64.22-1,.35v1.39h-1.81V90.73a3.22,3.22,0,0,1-2.23-1.35,3.65,3.65,0,0,1-.58-1.88h2.12c.05.17.1.34.16.5a1.42,1.42,0,0,0,1.38,1,3.17,3.17,0,0,0,.69-.07,1,1,0,0,0,.72-.64,1.55,1.55,0,0,0-.43-1.75,3.73,3.73,0,0,0-.84-.5c-.42-.2-.86-.35-1.29-.54a4.65,4.65,0,0,1-1.46-1A2.55,2.55,0,0,1,147,83.1a3.79,3.79,0,0,1,.25-2.3,2.68,2.68,0,0,1,1.42-1.37C148.92,79.34,149.18,79.27,149.47,79.15Z" transform="translate(-98.93 -44.28)"/><path class="cls-3" d="M132.72,96.63v-.08a1,1,0,0,1-.17-.79v-.59a.84.84,0,0,1,.24-.72h7.47l.81,0h.28l.12,0a1.35,1.35,0,0,1,.18.9,1.82,1.82,0,0,0,0,.33,1.35,1.35,0,0,1-.18.9h-7.35C133.65,96.6,133.19,96.62,132.72,96.63Z" transform="translate(-98.93 -44.28)"/><path class="cls-13" d="M141.3,84.08h0a1,1,0,0,1-.78.18h-1.18s0-.09,0-.11a.52.52,0,0,0,.14-.43v-.8a1.14,1.14,0,0,0-.18-.78l.58,0c.29,0,.56,0,.83,0a.55.55,0,0,1,.61.42v.31Z" transform="translate(-98.93 -44.28)"/><path class="cls-14" d="M143.49,100.59l0,.59a.46.46,0,0,1-.47.36h-1.53a1.16,1.16,0,0,0,.19-.81v-.59a1.15,1.15,0,0,0-.12-.68H142a.44.44,0,0,0,.16-.06l.06,0,.93,0,.12.06c.19.05.21.23.27.37Z" transform="translate(-98.93 -44.28)"/><path class="cls-14" d="M141.46,96.59a1.38,1.38,0,0,0,.19-.91,1.71,1.71,0,0,1,0-.32,1.43,1.43,0,0,0-.18-.91l1.27,0h.37l.11,0,.25.29v1.6a.8.8,0,0,1-.71.25C142.32,96.57,141.89,96.59,141.46,96.59Z" transform="translate(-98.93 -44.28)"/><path class="cls-14" d="M139.3,81.58a.74.74,0,0,1-.65.24c-.44,0-.88,0-1.33,0a3.32,3.32,0,0,0,.18-1.68.56.56,0,0,0-.23-.43l1.6,0c.26,0,.38.18.46.41v.33C139.31,80.8,139.31,81.19,139.3,81.58Z" transform="translate(-98.93 -44.28)"/><path class="cls-13" d="M143.69,86.46a.54.54,0,0,1-.52.25h-1.41a1.56,1.56,0,0,0,.12-.77c0-.24,0-.48,0-.71a.86.86,0,0,0-.18-.6l.18,0c.4,0,.81,0,1.21,0a.56.56,0,0,1,.63.4l0,1.3v.17Z" transform="translate(-98.93 -44.28)"/><path class="cls-13" d="M140.24,89.52c.26,0,.52,0,.78,0l.8,0,.06,0c.17.06.33.14.36.35v1.33c0,.34-.12.47-.45.47h-1.48a1.53,1.53,0,0,0,.18-.89,1.22,1.22,0,0,1,0-.27A1.4,1.4,0,0,0,140.24,89.52Z" transform="translate(-98.93 -44.28)"/><path class="cls-15" d="M141.88,89.5l-.06,0H141a1.19,1.19,0,0,0,.26-.91v-.92a1.35,1.35,0,0,0-.05-.29c0-.18-.16-.24-.25-.35l2,0h.26c.32,0,.47-.23.44-.59V85a.53.53,0,0,1,.56.49v1.48c0,.37-.17.53-.54.53H141.6l.11.16a.69.69,0,0,1,.17.49Z" transform="translate(-98.93 -44.28)"/><path class="cls-15" d="M141.06,94.42l-.81,0c.12-.16.28-.3.23-.53,0-.48,0-1,0-1.45a.4.4,0,0,0-.23-.41,1.28,1.28,0,0,1,.27,0h1.14c.42,0,.6-.19.61-.61s0-1,0-1.46a.54.54,0,0,1,.58.49V91.8a.55.55,0,0,1-.47.62.33.33,0,0,1-.14,0H140.9a1.24,1.24,0,0,1,.06.18,1.19,1.19,0,0,1,.09.36C141.07,93.46,141.06,93.93,141.06,94.42Z" transform="translate(-98.93 -44.28)"/><path class="cls-15" d="M143.46,96.35v-1.6a.94.94,0,0,0,.22.12.47.47,0,0,1,.34.49v1.45a.45.45,0,0,1-.39.5h-1.75a.51.51,0,0,0,.09.13.58.58,0,0,1,.19.5v1.4l-.06,0h-.75s0-.09,0-.11a.48.48,0,0,0,.19-.48c0-.47,0-.94,0-1.41a.45.45,0,0,0-.28-.44,1,1,0,0,1,.29,0h1.34C143.3,96.89,143.46,96.73,143.46,96.35Z" transform="translate(-98.93 -44.28)"/><path class="cls-16" d="M147.48,69.17h1.05c0,.16-.08.3-.13.45-.15.4-.29.79-.47,1.19a2.27,2.27,0,0,1-1,1.14c-.08,0-.17.08-.24,0s-.14-.2-.07-.32a2.92,2.92,0,0,0,.21-.32c.18-.44.35-.88.5-1.32A7.51,7.51,0,0,0,147.48,69.17Z" transform="translate(-98.93 -44.28)"/><path class="cls-15" d="M139.3,81.58c0-.39,0-.78,0-1.16v-.33c.4,0,.58.19.58.59V82.1l-.58,0h-.24C139.2,82,139.36,81.82,139.3,81.58Z" transform="translate(-98.93 -44.28)"/><path class="cls-15" d="M141.88,84.57l-.18,0h-.53a.36.36,0,0,1,0-.18.4.4,0,0,0,.1-.35l0-1.23v-.32c.39,0,.54.17.54.56S141.88,84.08,141.88,84.57Z" transform="translate(-98.93 -44.28)"/><path class="cls-2" d="M143.49,100.59v-.78h.15a.38.38,0,0,1,.39.36.09.09,0,0,1,0,.07v.52Z" transform="translate(-98.93 -44.28)"/><path class="cls-7" d="M143.22,99.44l-.12-.06Z" transform="translate(-98.93 -44.28)"/><path class="cls-15" d="M143.22,94.45l-.11,0Z" transform="translate(-98.93 -44.28)"/><path class="cls-15" d="M141.35,94.42h0s0,0,0,0Z" transform="translate(-98.93 -44.28)"/><path class="cls-17" d="M141.46,101.52c.51,0,1,0,1.53,0a.45.45,0,0,0,.47-.36q.1.66-.51.66h-11.3c-.4,0-.53-.15-.55-.59a.69.69,0,0,0,.68.3c.35,0,.69,0,1,0h8.32A1.71,1.71,0,0,0,141.46,101.52Z" transform="translate(-98.93 -44.28)"/><path class="cls-2" d="M147,64.57c.08-.08.14-.06.2.07l-.11,0Z" transform="translate(-98.93 -44.28)"/><path class="cls-18" d="M168.65,72.06l-.75-.38c.12-.39.22-.79.34-1.18.19-.65.39-1.3.59-2l.29-.27.51.56-.93,3.21Z" transform="translate(-98.93 -44.28)"/><path class="cls-14" d="M141,87.06c.09.11.25.17.26.35v1.28c0,.42-.12.52-.5.52h-1.43a3.54,3.54,0,0,0,.17-1.68.67.67,0,0,0-.12-.26l-.11-.2Z" transform="translate(-98.93 -44.28)"/><path class="cls-14" d="M140.26,92.05a.4.4,0,0,1,.23.41v1.45a.82.82,0,0,1-.68.24c-.44,0-.87,0-1.31,0a1.24,1.24,0,0,0,.19-.82,4.17,4.17,0,0,1,0-.5,1.87,1.87,0,0,0-.13-.81H140Z" transform="translate(-98.93 -44.28)"/><path class="cls-14" d="M141.31,96.94a.45.45,0,0,1,.28.44v1.41a.7.7,0,0,1-.65.25c-.44,0-.88,0-1.33,0a1.37,1.37,0,0,0,.18-.91,2.8,2.8,0,0,1,0-.41,1.12,1.12,0,0,0-.18-.76,1.31,1.31,0,0,1,.27-.06c.36,0,.71,0,1.07,0Z" transform="translate(-98.93 -44.28)"/><path class="cls-4" d="M141.46,101.52h-8.64a.68.68,0,0,1-.27-.61v-.85a.84.84,0,0,1,.24-.66h8.68l.06.06a1.15,1.15,0,0,1,.12.68v.59A1.16,1.16,0,0,1,141.46,101.52Z" transform="translate(-98.93 -44.28)"/><path class="cls-3" d="M140.24,89.52a1.34,1.34,0,0,1,.24,1,1.22,1.22,0,0,0,0,.27,1.53,1.53,0,0,1-.18.89c-.24,0-.48,0-.72,0h-8a1,1,0,0,1-.29-.82,3.75,3.75,0,0,0,0-.67.74.74,0,0,1,.19-.57s0-.07,0-.11h8.69Z" transform="translate(-98.93 -44.28)"/><path class="cls-3" d="M139.19,82.14h.12a1.14,1.14,0,0,1,.18.78v.8a.52.52,0,0,1-.14.43s0,.07,0,.11c-.24,0-.48,0-.72,0h-8a1.39,1.39,0,0,1-.23-1,.24.24,0,0,0,0-.12,1.38,1.38,0,0,1,.23-1h8.57Z" transform="translate(-98.93 -44.28)"/><path class="cls-3" d="M141.54,84.61h.16a.82.82,0,0,1,.18.59c0,.24,0,.47,0,.71a1.56,1.56,0,0,1-.12.77c-.24,0-.48.06-.72.06h-8a.72.72,0,0,1-.29-.67,5.34,5.34,0,0,0,0-.8.75.75,0,0,1,.25-.66h8.52Z" transform="translate(-98.93 -44.28)"/><path class="cls-7" d="M141.53,99.45l-.06-.07h.64a.33.33,0,0,1-.16.07Z" transform="translate(-98.93 -44.28)"/><path class="cls-8" d="M143.7,86.27v0Z" transform="translate(-98.93 -44.28)"/><path class="cls-13" d="M139.19,82.14h0Z" transform="translate(-98.93 -44.28)"/><path class="cls-13" d="M141.54,84.61h0Z" transform="translate(-98.93 -44.28)"/><path class="cls-19" d="M163.62,66.09a1.11,1.11,0,0,1,1.1,1.11v0a1,1,0,0,1-.89,1h-.12a1.13,1.13,0,0,1-1.08-1.13A1,1,0,0,1,163.62,66.09Z" transform="translate(-98.93 -44.28)"/><path class="cls-20" d="M163.52,74l.47.21-.13.44-.51-.11c-.27.52-.57,1-1.31.92l.05-.84c.52-.08.69-.44.77-.87a.52.52,0,0,0-.09-.42.25.25,0,0,0-.36-.09.27.27,0,0,0-.08.07c-.18.26-.32.55-.49.81a2.16,2.16,0,0,1-.39.46.93.93,0,0,1-1.33-.22l-.07-.11a1.5,1.5,0,0,1-.21-.82c0-.18,0-.32-.21-.36s-.17-.15-.13-.28a1.44,1.44,0,0,1,.09-.24l.39.06a4.73,4.73,0,0,1,.32-.46,1,1,0,0,1,.84-.42,2.3,2.3,0,0,1,0,.74s-.09.12-.15.14c-.43.09-.54.67-.46,1a.26.26,0,0,0,.33.16.2.2,0,0,0,.12-.08,3.07,3.07,0,0,0,.28-.42l.37-.63a1,1,0,0,1,1.41-.22,1,1,0,0,1,.25.29,1.48,1.48,0,0,1,.21,1.16A.43.43,0,0,0,163.52,74Z" transform="translate(-98.93 -44.28)"/><path class="cls-6" d="M137.15,79.66c.38-.64.75-1.29,1.16-1.92A37.63,37.63,0,0,1,141.08,74c.95-1.16,2-2.25,3-3.31.29-.29.61-.57.9-.88a8,8,0,0,0,.5-.65h1.18l.8,0q-.08.41-.18.81c-.15.44-.33.88-.51,1.31a1.77,1.77,0,0,1-.21.32c-.07.13,0,.23.07.32s.16,0,.24,0a2.25,2.25,0,0,0,1-1.14c.16-.39.31-.78.46-1.18.05-.14.09-.29.13-.45l.15,0h3.2l.12,0,.06.1.85,2.55c.13.4.26.81.41,1.2a.68.68,0,0,0,.69.49.69.69,0,0,0,.64-.51.86.86,0,0,0,0-.67c-.15-.45-.28-.89-.44-1.35l.16.12,1.38,1.86a22.14,22.14,0,0,1,1.74,2.83A19.32,19.32,0,0,1,159,79.49a12.69,12.69,0,0,1,.34,1.35c.14.76.25,1.53.35,2.3a10.25,10.25,0,0,1,.11,1.36c0,.52,0,1,0,1.57s-.11,1.15-.18,1.73a15,15,0,0,1-.74,3A17.16,17.16,0,0,1,157.4,94c-.34.59-.67,1.19-1,1.74a18.56,18.56,0,0,1-1.16,1.56c-.51.64-1,1.27-1.57,1.9-.29.33-.55.66-.83,1a9.69,9.69,0,0,1-1.24,1.32,1.24,1.24,0,0,0-.17.23h-2.71a5.09,5.09,0,0,1-.87-.06,19.26,19.26,0,0,1-2.12-.39l-1.53-.45-.12-.09v-.52a.38.38,0,0,0-.33-.43h-.21c-.06-.15-.08-.32-.27-.37l-.12-.06-.93,0v-1.4a.68.68,0,0,0-.19-.51.38.38,0,0,1-.09-.13h1.65a.44.44,0,0,0,.49-.39V95.34a.46.46,0,0,0-.35-.49,1.19,1.19,0,0,1-.22-.12l-.25-.29-.1,0h-.38l-1.27,0-.12,0s0,0,0,0,0,0,0,0h-.24V92.94a2.37,2.37,0,0,0-.09-.36l-.07-.18h1.37a.54.54,0,0,0,.6-.48.33.33,0,0,0,0-.14V90.5a.53.53,0,0,0-.48-.59h-.1l-.06-.07c0-.21-.18-.3-.36-.36V88.11a.74.74,0,0,0-.16-.49.91.91,0,0,1-.11-.16h2.12c.37,0,.54-.16.54-.53v-1.4a.53.53,0,0,0-.48-.57h-.07a.55.55,0,0,0-.63-.4h-1.21V83.08c0-.39-.15-.54-.54-.56a.55.55,0,0,0-.61-.41c-.28,0-.55,0-.83,0V80.69c0-.42-.16-.59-.58-.59-.08-.24-.19-.42-.46-.41h-1.6Zm12.32-.51-.8.29a2.66,2.66,0,0,0-1.42,1.38,3.78,3.78,0,0,0-.25,2.3,2.55,2.55,0,0,0,.78,1.48,5,5,0,0,0,1.46,1c.43.18.87.34,1.29.54a3.82,3.82,0,0,1,.83.48,1.56,1.56,0,0,1,.42,1.76,1,1,0,0,1-.71.64,4,4,0,0,1-.7.06A1.43,1.43,0,0,1,149,88c-.06-.17-.1-.34-.16-.51h-2.11a3.61,3.61,0,0,0,.57,1.89,3.22,3.22,0,0,0,2.24,1.35v1.43h1.8V90.78c.37-.13.7-.21,1-.35a2.63,2.63,0,0,0,1.49-1.62,4.33,4.33,0,0,0,.15-2.26,2.87,2.87,0,0,0-.94-1.66,6,6,0,0,0-1.95-1.1c-.29-.12-.58-.22-.86-.36a3.75,3.75,0,0,1-.72-.44,1.21,1.21,0,0,1-.32-1.38,1,1,0,0,1,1-.72,1.23,1.23,0,0,1,1.41,1c0,.1.05.2.07.29h2.13a3,3,0,0,0-2.55-3V78.07a7.23,7.23,0,0,0-1.8,0Z" transform="translate(-98.93 -44.28)"/><path class="cls-21" d="M144,100.76a.28.28,0,0,0,.11.08c.51.16,1,.3,1.54.45a16.85,16.85,0,0,0,2.12.4,6.15,6.15,0,0,0,.87.06h2.7l1.45-.08c.16,0,.31,0,.46,0h21.85a3,3,0,0,0,.4,0V100l1.78.24c.51.06,1,.08,1.53.19a6.23,6.23,0,0,1,1.62.46l.13.06a.21.21,0,0,1,0,.37.53.53,0,0,1-.19.13,6,6,0,0,1-1.39.4l-.37.06-1.21.18-.88.12-.84.11-1,.07-1.45.16h-.11l-1.37.07c-.74,0-1.49,0-2.23.13s-1.27.1-1.91.11-1.15,0-1.72.06-1.14,0-1.71.06c-1.23.1-2.46.11-3.69.12q-1.61,0-3.21.06c-3.62.11-7.23,0-10.86,0-1.24,0-2.49,0-3.73-.06-.74,0-1.49,0-2.24,0-.54,0-1.08-.08-1.62-.11-.39,0-.78,0-1.16,0l-1.95-.06-1.13-.06-2-.16h-.12c-.53,0-1.06,0-1.6-.07s-1-.11-1.49-.16l-.81-.07-1.45-.13c-.25,0-.5-.07-.75-.11s-.76-.1-1.14-.18a5.81,5.81,0,0,1-1.59-.46c-.1-.06-.21-.11-.23-.26a.72.72,0,0,1,.46-.36,8.19,8.19,0,0,1,1.4-.35c.61-.09,1.22-.21,1.83-.29s1.23-.13,1.85-.19l1.56-.17a3.53,3.53,0,0,1,.46,0v1.32c0,.43.15.59.54.59H143c.41,0,.58-.23.5-.66l0-.59Z" transform="translate(-98.93 -44.28)"/><path class="cls-22" d="M157.21,71.51a1.19,1.19,0,0,0-.06-1.13l.75-2.5,1.74-5.83c.29-1,.6-2,.9-3a1.84,1.84,0,0,1,.06-.18c1.12.41,2.21.85,3.32,1.27l3.31,1.28,3.34,1.28-.32,1.1c-.25.83-.5,1.66-.74,2.5a1.59,1.59,0,0,0-.06.3.61.61,0,0,0-.09.18c-.12.36-.23.73-.34,1.1-.06.22-.12.45-.17.68-.2.65-.41,1.3-.6,2-.12.39-.22.79-.34,1.18,0,.08,0,.16-.08.25-.29,1-.61,2-.91,3s-.52,1.76-.77,2.64l-.53,1.79-.4,1.37c-.1.31-.2.62-.29.94l-.19.66-.11.18c-.17-.43-.35-.86-.52-1.3a1.83,1.83,0,0,1-.06-.25,2.52,2.52,0,0,0,.15-.34c.11-.33.2-.67.29-1,.2-.65.4-1.3.58-2,.39-1.3.77-2.61,1.16-3.92.29-1,.6-2,.89-3l1.26-4.26c.25-.84.51-1.68.76-2.52a1.24,1.24,0,0,0,0-.27c-1.36-.52-2.7-1-4-1.56s-2.67-1-4-1.53c0,.13-.08.22-.11.32l-.65,2.15c-.24.83-.49,1.65-.74,2.47s-.44,1.52-.67,2.28l-1,3.37c-.08.27-.14.54-.21.8Z" transform="translate(-98.93 -44.28)"/><path class="cls-23" d="M175.53,100v1.66l-.4,0H153.29c-.16,0-.31,0-.46,0a.7.7,0,0,1,.19-.06,12.21,12.21,0,0,0,1.69-.3,13.26,13.26,0,0,0,1.76-.54c.2-.08.41-.13.61-.19l.23,0,16.56,0a2,2,0,0,0,.32,0V91.82l0-.1.13,0,.7-.35c.15-.07.31-.11.47-.17,0,.12,0,.24,0,.36v8.14C175.52,99.79,175.53,99.91,175.53,100Z" transform="translate(-98.93 -44.28)"/><path class="cls-23" d="M175.05,78.66c.19.49.4,1,.58,1.45L177.5,85l1.21,3.16a1.67,1.67,0,0,1,0,.19c-.17.09-.33.19-.51.27l-2.58,1.28-.16.13-.14,0-1.54.76a.31.31,0,0,0-.07.09,2,2,0,0,0-.22.08c-.45.22-.91.43-1.36.66l-.94.52-.14,0-1.78.89c-.45.22-.89.47-1.34.7s-1.2.59-1.79.9l-1.53.76-1.07.51s-.06.09-.1.13a2,2,0,0,0-.83.38h-.17c.29-.41.58-.82.85-1.23l.41-.61.74-.33L166.93,93c.58-.3,1.15-.59,1.73-.87L171,91l1.64-.83,1.67-.83,1.39-.68L177,88l.22-.15-.29-.81-1.37-3.53c-.34-.89-.68-1.78-1-2.68-.13-.33-.27-.65-.41-1a0,0,0,0,0,0,0l.05-.07c.19-.23.36-.47.56-.69S174.85,78.71,175.05,78.66Z" transform="translate(-98.93 -44.28)"/><path class="cls-23" d="M170.12,67.32l.4.38,2.63,2.75,2.36,2.46c.47.5.94,1,1.42,1.48l.09.14-.76.94-1.56,2-.06.11-1.26,1.55-1.59,2c-.12.15-.23.31-.34.47s-.16.17-.23.26c-.34.4-.68.81-1,1.22-.7.86-1.4,1.73-2.09,2.6a5.62,5.62,0,0,0-.35.5l-1.16,1.44c-.25.29-.51.59-.75.91a1.09,1.09,0,0,0-.08.15l-.26.16c0-.19,0-.37,0-.56,0-.39,0-.79,0-1.18a3,3,0,0,0,.27-.23l1-1.24c.42-.52.85-1,1.27-1.54l1.78-2.23,1.25-1.56,1.34-1.68.94-1.16c.52-.64,1-1.28,1.55-1.93l.45-.59c-.11-.13-.2-.25-.3-.36l-2.77-2.89-1.44-1.54-1.21-1.25a1.85,1.85,0,0,1,0-.23C169.85,68.18,170,67.74,170.12,67.32Z" transform="translate(-98.93 -44.28)"/><path class="cls-11" d="M173.38,79.09l1.26-1.56c.13.38.27.76.41,1.13-.2,0-.25.25-.37.38s-.38.46-.57.69h-.05l-.32-.76Z" transform="translate(-98.93 -44.28)"/><path class="cls-11" d="M173.76,90.85s0-.07.07-.09l1.55-.76.14,0v1.18c-.16.06-.31.1-.46.17s-.47.24-.7.35l-.14,0c0-.28,0-.56,0-.83Z" transform="translate(-98.93 -44.28)"/><path class="cls-19" d="M158.42,72.78a2.22,2.22,0,0,1-.69-.74c.07-.26.13-.53.21-.8.33-1.13.67-2.25,1-3.38.23-.76.44-1.51.67-2.27s.5-1.64.74-2.47L161,61a2,2,0,0,1,.11-.32c1.35.49,2.68,1,4,1.53l4.05,1.56a1.24,1.24,0,0,1,0,.27c-.25.84-.51,1.68-.76,2.52l-1.26,4.26c-.29,1-.6,2-.89,3-.39,1.31-.77,2.62-1.16,3.92-.19.66-.39,1.31-.58,2-.1.33-.19.67-.29,1a2.17,2.17,0,0,1-.15.35.64.64,0,0,1-.13-.15l-.51-1c.17-.09.16-.3.21-.43.29-.9.53-1.82.8-2.73l1.47-5c.44-1.46.87-2.93,1.31-4.4.06-.2.12-.39.17-.59a2.6,2.6,0,0,1-1.32-3.05l-2.4-.92-.11.22a2.28,2.28,0,0,1-.68.94,1.89,1.89,0,0,1-1.58.41l-.3,0c-.17.57-.34,1.1-.5,1.64-.37,1.22-.73,2.44-1.09,3.67-.23.77-.45,1.55-.69,2.33C158.64,72.17,158.52,72.47,158.42,72.78Z" transform="translate(-98.93 -44.28)"/><path class="cls-11" d="M166.14,77.59c.25-.89.51-1.76.77-2.63s.6-2,.91-3a2.41,2.41,0,0,1,.08-.25l.75.38a2.54,2.54,0,0,1,0,.29c-.22.75-.45,1.48-.67,2.24s-.39,1.34-.6,2c-.14.49-.3,1-.45,1.47l-.23-.15Z" transform="translate(-98.93 -44.28)"/><path class="cls-18" d="M166.14,77.59l.52.33c.08,0,.15.1.23.15a.43.43,0,0,0,0,.11.75.75,0,0,0-.07.12c-.14.42-.28.84-.41,1.26a1.47,1.47,0,0,0-.82-.18Z" transform="translate(-98.93 -44.28)"/><path class="cls-11" d="M165.61,79.38a1.47,1.47,0,0,1,.82.18v.06l-.29.95c-.27-.21-.27-.21-.57,0l-.35.2Z" transform="translate(-98.93 -44.28)"/><path class="cls-18" d="M165.22,80.75l.35-.2c.29-.2.29-.2.56,0a1.26,1.26,0,0,1-.29.89,2.47,2.47,0,0,1-.47.11.83.83,0,0,0-.46.12Z" transform="translate(-98.93 -44.28)"/><path class="cls-18" d="M165.09,84a.76.76,0,0,1-.09-.18c-.13-.41-.25-.83-.38-1.24l.12-.19a1.9,1.9,0,0,0,.82.12c0,.11,0,.23-.07.34-.07.3-.16.59-.24.89Z" transform="translate(-98.93 -44.28)"/><path class="cls-11" d="M165.56,82.47a1.9,1.9,0,0,1-.82-.12l.18-.66a.9.9,0,0,1,.46-.12,1.6,1.6,0,0,0,.47-.11l-.24,1Z" transform="translate(-98.93 -44.28)"/><path class="cls-24" d="M157.08,100.56s0-.08.07-.09a15.69,15.69,0,0,0,1.87-1l.28,0h11.63a1.18,1.18,0,0,0,.26,0,2.33,2.33,0,0,1,2.1-2.39V94.29a3.61,3.61,0,0,0-.38-.1,2.06,2.06,0,0,1-1.13-.69c-.1-.12-.2-.25-.29-.38v-.06a3.88,3.88,0,0,0,.56-.23c.61-.29,1.21-.63,1.81-.93a1.58,1.58,0,0,1,.31-.09v8.8l-.32,0-16.56,0Z" transform="translate(-98.93 -44.28)"/><path class="cls-18" d="M174.18,91.82a1.58,1.58,0,0,0-.31.09c-.6.29-1.2.62-1.81.93a4.68,4.68,0,0,1-.56.23,2.32,2.32,0,0,1-.25-1l.94-.52c.45-.23.9-.44,1.35-.66a2,2,0,0,1,.22-.08l.41,0c0,.27,0,.55,0,.83Z" transform="translate(-98.93 -44.28)"/><path class="cls-19" d="M163.75,94.58l.15-.34.55-1.1.05-.07h0l.79-.37,1.47-.72,1.4-.71.91-.46c.45-.22.89-.46,1.34-.69l1.48-.7.62-.32.87-.45a5.38,5.38,0,0,0,.67-.36,2.6,2.6,0,0,1,1.06-3.13V85l-.9-2.32c-.08-.2-.12-.21-.34-.14a2,2,0,0,1-1.18,0,4.15,4.15,0,0,1-.6-.29v-.06l.09-.07c.46-.59.92-1.18,1.39-1.75.16-.2.34-.38.5-.56.14.32.28.65.41,1,.35.88.69,1.77,1,2.67L176.88,87l.29.81L177,88l-1.23.62-1.38.68-1.67.83L171,91l-2.37,1.18c-.58.3-1.16.58-1.74.87l-2.44,1.24C164.25,94.37,164,94.47,163.75,94.58Z" transform="translate(-98.93 -44.28)"/><path class="cls-11" d="M171.25,92.11a2.32,2.32,0,0,0,.25,1v.06l-.21.09-1.61.81-1.9,1-1.45.73a3.27,3.27,0,0,0-.13-1.08c.6-.3,1.2-.59,1.79-.9s.9-.48,1.35-.7,1.18-.6,1.78-.89A.5.5,0,0,1,171.25,92.11Z" transform="translate(-98.93 -44.28)"/><path class="cls-18" d="M174.07,79.86c-.17.19-.35.37-.51.56-.46.59-.92,1.18-1.39,1.76a.35.35,0,0,1-.09.07l-.29-.26-.36-.46c.12-.16.22-.32.35-.47.52-.66,1.06-1.31,1.59-2l.36-.12.32.77v.06A.08.08,0,0,1,174.07,79.86Z" transform="translate(-98.93 -44.28)"/><path class="cls-18" d="M166.19,94.63a3.27,3.27,0,0,1,.13,1.08v.05l-.48.21-.74.32a1.43,1.43,0,0,0-.42-.89Z" transform="translate(-98.93 -44.28)"/><path class="cls-11" d="M164.67,95.39a1.43,1.43,0,0,1,.42.89v.06l-.42.19-.45.17c0-.43,0-.47-.44-.59l-.29-.08s.06-.11.1-.13Z" transform="translate(-98.93 -44.28)"/><path class="cls-18" d="M163.5,96l.29.09c.4.12.43.16.44.59a.88.88,0,0,1-.58.29l-.13,0a.52.52,0,0,1-.48-.33.31.31,0,0,0-.35-.21A2,2,0,0,1,163.5,96Z" transform="translate(-98.93 -44.28)"/><path class="cls-11" d="M162.67,96.42a.31.31,0,0,1,.35.21.54.54,0,0,0,.48.34.21.21,0,0,1,.13,0s-.06.08-.1.1l-.77.38h-.07a1.22,1.22,0,0,1-.48-.67.6.6,0,0,1,.29-.4Z" transform="translate(-98.93 -44.28)"/><path class="cls-19" d="M174.07,79.8v-.06h.05Z" transform="translate(-98.93 -44.28)"/><path class="cls-19" d="M168.7,72.05l.93-3.22h.05c.4.42.81.84,1.2,1.26s1,1,1.45,1.54c.92,1,1.84,1.93,2.77,2.89.1.1.19.22.3.35l-.45.59c-.51.65-1,1.29-1.55,1.93l-.94,1.17c-.45.55-.9,1.12-1.34,1.67l-1.25,1.57c-.6.73-1.19,1.47-1.79,2.22l-1.26,1.55c-.34.41-.66.83-1,1.23a1.43,1.43,0,0,1-.26.23l-.14-1.26,1.54-1.9c.39-.49.77-1,1.15-1.48.72-.89,1.45-1.76,2.16-2.64L172.43,77c.25-.33.26-.33,0-.66a2.52,2.52,0,0,1-.43-1.46,2.34,2.34,0,0,1,.43-1.4c.12-.17.11-.19-.05-.35-.49-.53-1-1.06-1.49-1.58l-.18-.17c-.32.21-.64.41-1,.59A1.64,1.64,0,0,1,168.7,72.05Z" transform="translate(-98.93 -44.28)"/><path class="cls-11" d="M171.45,81.52l.35.46.29.26v.05l-.86,1.07L170,84.89l-1,1.26c-.22.27-.46.53-.68.79a.45.45,0,0,1-.11-.13c-.14-.24-.28-.48-.41-.72l.35-.49c.69-.87,1.39-1.74,2.09-2.6.33-.41.67-.82,1-1.22C171.29,81.69,171.38,81.61,171.45,81.52Z" transform="translate(-98.93 -44.28)"/><path class="cls-18" d="M167.77,86.09l.4.72.11.13v.18a2.91,2.91,0,0,0-.27.24c-.22.25-.43.51-.64.78l-.13-.16a1.05,1.05,0,0,0-.63-.44Z" transform="translate(-98.93 -44.28)"/><path class="cls-11" d="M166.6,87.55a1.05,1.05,0,0,1,.63.44,1.83,1.83,0,0,0,.13.16v.07l-.18.18-.5.53c-.08-.31-.17-.39-.48-.37-.14,0-.29,0-.42,0a1.09,1.09,0,0,1,.08-.15C166.1,88.14,166.35,87.85,166.6,87.55Z" transform="translate(-98.93 -44.28)"/><path class="cls-18" d="M165.78,88.6l.42,0c.3,0,.39.06.47.37s-.23.35-.37.52l-.22,0c-.21,0-.44.06-.59-.17s0-.37,0-.56Z" transform="translate(-98.93 -44.28)"/><path class="cls-25" d="M158.42,72.78c.1-.3.2-.59.29-.89.23-.77.45-1.55.68-2.33.36-1.22.73-2.44,1.09-3.66.16-.54.33-1.08.5-1.64a1.55,1.55,0,0,1,.31,0,1.89,1.89,0,0,0,1.58-.41,2.45,2.45,0,0,0,.68-.94,2.26,2.26,0,0,1,.11-.22l2.38.93a2.59,2.59,0,0,0,1.32,3.05c-.06.19-.11.39-.17.59l-1.31,4.4-1.47,5c-.27.91-.53,1.83-.81,2.73,0,.15,0,.34-.2.43-.55-1-1.15-2-1.79-2.9a.75.75,0,0,1-.09-.15,7.93,7.93,0,0,0,1-.06,2.63,2.63,0,0,0,1.93-1.61,3.1,3.1,0,0,0,.18-2,3.17,3.17,0,0,0-1.56-2.21,2.78,2.78,0,0,0-4.1,1.62c-.07.24-.11.48-.17.72Zm5.21-6.69a1,1,0,0,0-1,1,1.13,1.13,0,0,0,1.08,1.14,1,1,0,0,0,1-.92.29.29,0,0,0,0-.13,1.1,1.1,0,0,0-1.06-1.14h0Z" transform="translate(-98.93 -44.28)"/><path class="cls-26" d="M166.31,95.76v-.05l1.45-.73,1.9-1,1.61-.81.21-.09c.09.13.19.26.29.38a2.16,2.16,0,0,0,1.13.69l.38.09v2.87a2.33,2.33,0,0,0-2.09,2.39l-.27,0H159.3a1.27,1.27,0,0,1-.28-.06l1-.68.2-.11.39-.16c.35-.15.69-.32,1-.48l.09.07a2.36,2.36,0,0,0,1.57.91,2.19,2.19,0,0,0,1.83-.54A3.45,3.45,0,0,0,166.31,95.76Zm2.3-.06a1.36,1.36,0,0,0,.38.92.83.83,0,0,0,1.19,0,1.15,1.15,0,0,0,.14-.17,1.38,1.38,0,0,0,.06-1.46.84.84,0,0,0-.8-.51.85.85,0,0,0-.79.55A3.38,3.38,0,0,0,168.61,95.7Z" transform="translate(-98.93 -44.28)"/><path class="cls-25" d="M168.7,72.05a1.54,1.54,0,0,0,1.08-.06,8.64,8.64,0,0,0,1-.59l.19.17c.5.52,1,1.05,1.49,1.58.15.16.16.18,0,.35a2.49,2.49,0,0,0-.43,1.4,2.61,2.61,0,0,0,.44,1.46c.23.33.22.33,0,.66-.72.9-1.43,1.82-2.15,2.72l-2.16,2.64L167,83.86l-1.53,1.9c-.07-.39-.15-.77-.22-1.16L165.1,84l.17-.25a2.49,2.49,0,0,0,2.15-1.11,3.58,3.58,0,0,0-.5-4.42.23.23,0,0,0,0-.11c.15-.49.31-1,.46-1.48.2-.67.39-1.34.59-2s.45-1.48.67-2.24a2.89,2.89,0,0,0,0-.29Zm1.45,3.58a1.32,1.32,0,0,0-.33-.95.91.91,0,0,0-1.58.19,1.25,1.25,0,0,0,.45,1.53.86.86,0,0,0,.87.12,1,1,0,0,0,.6-.89Z" transform="translate(-98.93 -44.28)"/><path class="cls-25" d="M168.28,87.12v-.18c.22-.26.46-.52.68-.79l1-1.26,1.23-1.53.87-1.07a4.92,4.92,0,0,0,.61.3,2,2,0,0,0,1.17,0c.23-.07.27-.06.35.13.3.78.6,1.55.89,2.32a.33.33,0,0,1,0,.14A2.59,2.59,0,0,0,174,88.3a5.57,5.57,0,0,1-.68.37l-.87.44-.62.32c-.49.24-1,.46-1.47.71s-.89.46-1.34.69c-.29.16-.61.29-.92.45l-1.4.71c-.47.24-1,.49-1.46.72l-.79.38c0-.12.06-.25.1-.37l.43-1.24h.12a2.43,2.43,0,0,0,2-.24,2.66,2.66,0,0,0,.77-.76,3.56,3.56,0,0,0,.58-2.34A2.76,2.76,0,0,0,168.28,87.12Zm3.92-1.52a1.19,1.19,0,0,0-.27-.85.88.88,0,0,0-1.23-.23.85.85,0,0,0-.29.36,1.35,1.35,0,0,0,.17,1.44.86.86,0,0,0,1.21.22,1.14,1.14,0,0,0,.19-.19A1.11,1.11,0,0,0,172.2,85.6Z" transform="translate(-98.93 -44.28)"/><path class="cls-19" d="M158.79,73.24c.05-.24.09-.48.16-.72a2.68,2.68,0,0,1,2.18-2,2.73,2.73,0,0,1,1.93.35,3.27,3.27,0,0,1,1.56,2.21,3.13,3.13,0,0,1-.19,2,2.62,2.62,0,0,1-1.92,1.6,6.45,6.45,0,0,1-1,.06c-.35-.47-.69-1-1.05-1.41s-.69-.85-1-1.28Zm4.73.79a.43.43,0,0,1,0-.16,1.53,1.53,0,0,0-.21-1.16,1,1,0,0,0-1.39-.33.83.83,0,0,0-.27.26l-.38.63a3,3,0,0,1-.27.42.27.27,0,0,1-.37,0,.32.32,0,0,1-.08-.12c-.08-.3,0-.89.45-1,.06,0,.16-.09.16-.14a2.62,2.62,0,0,0,0-.74,1,1,0,0,0-.84.42,4.73,4.73,0,0,0-.32.46l-.39-.06a1.44,1.44,0,0,0-.09.24c0,.13,0,.25.13.28s.22.18.21.36a1.5,1.5,0,0,0,.21.82.94.94,0,0,0,1.28.4.41.41,0,0,0,.11-.07,1.71,1.71,0,0,0,.39-.46c.18-.26.32-.55.5-.81a.25.25,0,0,1,.36-.06.2.2,0,0,1,.08.08.52.52,0,0,1,.09.42.92.92,0,0,1-.77.87l-.05.84c.72.06,1-.4,1.31-.92l.51.11.13-.44Z" transform="translate(-98.93 -44.28)"/><path class="cls-19" d="M168.28,87.12a2.58,2.58,0,0,1,.24,1,3.56,3.56,0,0,1-.58,2.34,2.66,2.66,0,0,1-.77.76,2.44,2.44,0,0,1-2,.24H165c.06-.26.12-.51.19-.77a.54.54,0,0,0,.33-.36h.12l.6-.09.22.48.41-.15a1.66,1.66,0,0,0-.14-.37.25.25,0,0,1,.07-.32h0l.26-.23a1.47,1.47,0,0,0,.24-1.44v-.08l.65-.78A2.09,2.09,0,0,1,168.28,87.12Z" transform="translate(-98.93 -44.28)"/><path class="cls-18" d="M162.22,96.82a1.19,1.19,0,0,0,.47.67l-1,.52s-.06,0-.09,0l-.23-.36c.19-.22.38-.45.58-.67A1.34,1.34,0,0,1,162.22,96.82Z" transform="translate(-98.93 -44.28)"/><path class="cls-11" d="M165.67,90.33h-.11l-.24-.06c.06-.32.12-.63.17-1,.15.23.38.19.59.17l.22-.06c-.12.16-.25.32-.37.49S165.76,90.19,165.67,90.33Z" transform="translate(-98.93 -44.28)"/><path class="cls-11" d="M161.41,97.66l.23.36a.06.06,0,0,1,0,.06l-1,.48-.39.16c.16-.17.32-.33.49-.49s.34-.32.52-.47A1,1,0,0,1,161.41,97.66Z" transform="translate(-98.93 -44.28)"/><path class="cls-18" d="M165.32,90.27l.24.07a.55.55,0,0,1-.34.36Z" transform="translate(-98.93 -44.28)"/><path class="cls-25" d="M164.5,93.07l-.05.07Z" transform="translate(-98.93 -44.28)"/><path class="cls-19" d="M166.91,78.18a3.58,3.58,0,0,1,.5,4.42,2.5,2.5,0,0,1-2.16,1.11c.08-.3.17-.59.24-.89,0-.11,0-.23.07-.34l.05-.06c.29,0,.43-.24.65-.35l.39.33.31-.34-.36-.39c.09-.24.19-.45.25-.66a1.29,1.29,0,0,0-.42-1.38v-.06c.13-.42.27-.84.41-1.26A.83.83,0,0,1,166.91,78.18Z" transform="translate(-98.93 -44.28)"/><path class="cls-20" d="M166.43,79.62a1.31,1.31,0,0,1,.42,1.38c-.06.21-.16.42-.25.66l.36.39-.31.35-.39-.34c-.22.11-.37.36-.65.35l.24-1a1.32,1.32,0,0,0,.29-.88Z" transform="translate(-98.93 -44.28)"/><path class="cls-19" d="M161.65,98.08V98h.08c.33-.17.65-.35,1-.53h.06l.63.3,0,.51h.44l0-.54c1-.26,1.21-.84,1.21-1.4v-.07l.74-.32.48-.21a3.47,3.47,0,0,1-1.16,2.76,2.19,2.19,0,0,1-1.83.54,2.38,2.38,0,0,1-1.57-.91Z" transform="translate(-98.93 -44.28)"/><path class="cls-20" d="M165.08,96.36c0,.56-.21,1.14-1.21,1.4l0,.54h-.43l0-.51-.63-.3.77-.37a.36.36,0,0,0,.1-.11.89.89,0,0,0,.58-.3l.45-.17Z" transform="translate(-98.93 -44.28)"/><path class="cls-20" d="M165.67,90.33c.09-.14.17-.29.26-.41l.37-.48c.13-.16.32-.3.37-.52l.51-.54.18-.18a1.52,1.52,0,0,1-.25,1.45l-.26.23a.23.23,0,0,0-.09.31v0a3.84,3.84,0,0,1,.14.36l-.42.16-.21-.48Z" transform="translate(-98.93 -44.28)"/><path class="cls-19" d="M168.61,95.7a3.38,3.38,0,0,1,.18-.62.85.85,0,0,1,.79-.55.84.84,0,0,1,.8.51,1.38,1.38,0,0,1-.06,1.46.84.84,0,0,1-1.16.27.8.8,0,0,1-.17-.15A1.36,1.36,0,0,1,168.61,95.7Z" transform="translate(-98.93 -44.28)"/><path class="cls-19" d="M170.16,75.63a1,1,0,0,1-.6.89.86.86,0,0,1-.87-.12,1.26,1.26,0,0,1-.46-1.53.92.92,0,0,1,1.59-.19A1.29,1.29,0,0,1,170.16,75.63Z" transform="translate(-98.93 -44.28)"/><path class="cls-19" d="M172.2,85.6a1.11,1.11,0,0,1-.22.75.85.85,0,0,1-1.4,0,1.35,1.35,0,0,1-.17-1.44.86.86,0,0,1,1.52-.13A1.19,1.19,0,0,1,172.2,85.6Z" transform="translate(-98.93 -44.28)"/><path class="cls-16" d="M165.57,87c0,.39,0,.79,0,1.18a5.09,5.09,0,0,1,0,.56c0,.18,0,.38,0,.57s-.11.63-.17,1l-.1.42-.19.77c-.14.41-.29.83-.43,1.25,0,.11-.07.24-.1.36h0l-.05.06-.55,1.1-.15.34c-.13.21-.27.41-.41.61-.29.41-.56.82-.84,1.23a.59.59,0,0,0-.29.41A1.19,1.19,0,0,0,162,97c-.2.22-.39.45-.58.68a.75.75,0,0,0-.17.1c-.17.15-.34.29-.52.46l-.48.49-.21.11-1,.69a15.72,15.72,0,0,1-1.87,1s-.05.06-.07.09a6.17,6.17,0,0,0-.61.19,13.92,13.92,0,0,1-1.77.55,10.74,10.74,0,0,1-1.68.29l-.2.06-1.44.09a.94.94,0,0,1,.16-.23,9.18,9.18,0,0,0,1.24-1.33c.29-.32.56-.65.84-1,.52-.64,1.06-1.26,1.57-1.9s.8-1,1.16-1.56.7-1.16,1-1.74a17.21,17.21,0,0,0,1.41-3.16,14.44,14.44,0,0,0,.75-3c.07-.58.14-1.16.18-1.74s0-1,0-1.57a12.28,12.28,0,0,0-.11-1.35q-.15-1.16-.36-2.31c-.09-.45-.2-.9-.33-1.34a20,20,0,0,0-1.49-3.73A22.86,22.86,0,0,0,155.74,73l-1.38-1.86a.91.91,0,0,0-.16-.11l-.24-.67a1.26,1.26,0,0,1,.25.11l1.7,1.08.24.16a.69.69,0,0,0,1-.11l.07,0,.53.53a2.2,2.2,0,0,0,.68.74l.38.46.66.82,1,1.28c.33.43.7.94,1,1.41l.09.16a31.63,31.63,0,0,1,1.79,2.89l.51,1a.47.47,0,0,0,.13.15,1,1,0,0,0,.06.25c.17.44.34.87.52,1.3s.25.83.38,1.24a1.42,1.42,0,0,0,.08.18l.12.64c.08.39.15.77.23,1.15Z" transform="translate(-98.93 -44.28)"/><text class="cls-27" transform="translate(0 9.76) scale(0.89 1)">The Monthly Expense<tspan class="cls-28" x="96.08" y="0"> </tspan><tspan class="cls-29" x="98.39" y="0">T</tspan><tspan x="103.02" y="0">racker</tspan></text></svg>